<svg xmlns="http://www.w3.org/2000/svg" xmlns:xlink="http://www.w3.org/1999/xlink" contentStyleType="text/css" data-diagram-type="CLASS" height="1151px" preserveAspectRatio="none" style="width:3890px;height:1151px;background:#FFFFFF;" version="1.1" viewBox="0 0 3890 1151" width="3890px" zoomAndPan="magnify"><?plantuml 1.2026.6?><defs/><g><g class="title" data-source-line="1"><text fill="#000000" font-family="sans-serif" font-size="14" font-weight="700" lengthAdjust="spacing" textLength="379.4825" x="1751.8608" y="24.9659">Elo Framework - Entrega Parcial com Apto Instanciado</text></g><!--cluster Elo Framework - Nucleo--><g class="cluster" data-qualified-name="Elo Framework - Nucleo" data-source-line="6" id="ent0001"><rect fill="none" height="451" rx="2.5" ry="2.5" style="stroke:#000000;stroke-width:1.5;" width="1582" x="1477" y="251.0679"/><text fill="#000000" font-family="sans-serif" font-size="14" font-weight="700" lengthAdjust="spacing" textLength="165.3954" x="2185.3023" y="268.0339">Elo Framework - Nucleo</text></g><!--cluster Apto - Instancia do Framework--><g class="cluster" data-qualified-name="Apto - Instancia do Framework" data-source-line="42" id="ent0008"><rect fill="none" height="1090" rx="2.5" ry="2.5" style="stroke:#000000;stroke-width:1.5;" width="1446" x="7" y="47.0679"/><text fill="#000000" font-family="sans-serif" font-size="14" font-weight="700" lengthAdjust="spacing" textLength="215.3192" x="622.3404" y="64.0339">Apto - Instancia do Framework</text></g><!--class PerfilFramework--><g class="entity" data-qualified-name="Elo Framework - Nucleo.PerfilFramework" data-source-line="8" id="ent0002"><rect fill="#F1F1F1" height="80.4799" rx="2.5" ry="2.5" style="stroke:#181818;stroke-width:0.5;" width="134.1156" x="1493" y="318.0679"/><ellipse cx="1508" cy="340.7739" fill="#B4A7E5" rx="11" ry="11" style="stroke:#181818;stroke-width:1;"/><path d="M1503.9219,336.5396 L1503.9219,334.3833 L1511.3125,334.3833 L1511.3125,336.5396 L1508.8438,336.5396 L1508.8438,344.6177 L1511.3125,344.6177 L1511.3125,346.7739 L1503.9219,346.7739 L1503.9219,344.6177 L1506.3906,344.6177 L1506.3906,336.5396 L1503.9219,336.5396 Z " fill="#000000"/><text fill="#000000" font-family="sans-serif" font-size="12" font-style="italic" lengthAdjust="spacing" textLength="82.4406" x="1531.8375" y="335.896">&#171;ponto flexivel&#187;</text><text fill="#000000" font-family="sans-serif" font-size="14" font-style="italic" lengthAdjust="spacing" textLength="102.1156" x="1522" y="354.378">PerfilFramework</text><line style="stroke:#181818;stroke-width:0.5;" x1="1494" x2="1626.1156" y1="363.4799" y2="363.4799"/><line style="stroke:#181818;stroke-width:0.5;" x1="1494" x2="1626.1156" y1="371.4799" y2="371.4799"/><text fill="#000000" font-family="sans-serif" font-size="14" lengthAdjust="spacing" textLength="91.7836" x="1499" y="390.4459">+getId(): Long</text></g><!--class OfertaFramework--><g class="entity" data-qualified-name="Elo Framework - Nucleo.OfertaFramework" data-source-line="12" id="ent0003"><rect fill="#F1F1F1" height="118.6158" rx="2.5" ry="2.5" style="stroke:#181818;stroke-width:0.5;" width="174.1754" x="2204" y="298.5679"/><ellipse cx="2233.6375" cy="321.2739" fill="#B4A7E5" rx="11" ry="11" style="stroke:#181818;stroke-width:1;"/><path d="M2229.5594,317.0396 L2229.5594,314.8833 L2236.95,314.8833 L2236.95,317.0396 L2234.4813,317.0396 L2234.4813,325.1177 L2236.95,325.1177 L2236.95,327.2739 L2229.5594,327.2739 L2229.5594,325.1177 L2232.0281,325.1177 L2232.0281,317.0396 L2229.5594,317.0396 Z " fill="#000000"/><text fill="#000000" font-family="sans-serif" font-size="12" font-style="italic" lengthAdjust="spacing" textLength="82.4406" x="2264.4938" y="316.396">&#171;ponto flexivel&#187;</text><text fill="#000000" font-family="sans-serif" font-size="14" font-style="italic" lengthAdjust="spacing" textLength="109.6476" x="2250.8903" y="334.878">OfertaFramework</text><line style="stroke:#181818;stroke-width:0.5;" x1="2205" x2="2377.1754" y1="343.9799" y2="343.9799"/><line style="stroke:#181818;stroke-width:0.5;" x1="2205" x2="2377.1754" y1="351.9799" y2="351.9799"/><text fill="#000000" font-family="sans-serif" font-size="14" lengthAdjust="spacing" textLength="91.7836" x="2210" y="370.9459">+getId(): Long</text><text fill="#000000" font-family="sans-serif" font-size="14" lengthAdjust="spacing" textLength="162.1754" x="2210" y="390.0138">+getPublicadorId(): Long</text><text fill="#000000" font-family="sans-serif" font-size="14" lengthAdjust="spacing" textLength="120.2595" x="2210" y="409.0817">+isAtiva(): boolean</text></g><!--class CompatibilidadeStrategy--><g class="entity" data-qualified-name="Elo Framework - Nucleo.CompatibilidadeStrategy" data-source-line="18" id="ent0004"><rect fill="#F1F1F1" height="99.5479" rx="2.5" ry="2.5" style="stroke:#181818;stroke-width:0.5;" width="430.5426" x="2611.5" y="586.0679"/><ellipse cx="2740.3756" cy="608.7739" fill="#B4A7E5" rx="11" ry="11" style="stroke:#181818;stroke-width:1;"/><path d="M2736.2974,604.5396 L2736.2974,602.3833 L2743.6881,602.3833 L2743.6881,604.5396 L2741.2193,604.5396 L2741.2193,612.6177 L2743.6881,612.6177 L2743.6881,614.7739 L2736.2974,614.7739 L2736.2974,612.6177 L2738.7662,612.6177 L2738.7662,604.5396 L2736.2974,604.5396 Z " fill="#000000"/><text fill="#000000" font-family="sans-serif" font-size="12" font-style="italic" lengthAdjust="spacing" textLength="82.4406" x="2796.795" y="603.896">&#171;ponto flexivel&#187;</text><text fill="#000000" font-family="sans-serif" font-size="14" font-style="italic" lengthAdjust="spacing" textLength="154.2794" x="2760.8756" y="622.378">CompatibilidadeStrategy</text><rect fill="#FFFFFF" height="18.3441" style="stroke:#181818;stroke-width:1;stroke-dasharray:2,2;" width="8.012" x="3037.0305" y="583.0679"/><text fill="#000000" font-family="sans-serif" font-size="12" font-style="italic" lengthAdjust="spacing" textLength="6.012" x="3038.0305" y="596.896">T</text><line style="stroke:#181818;stroke-width:0.5;" x1="2612.5" x2="3041.0426" y1="631.4799" y2="631.4799"/><line style="stroke:#181818;stroke-width:0.5;" x1="2612.5" x2="3041.0426" y1="639.4799" y2="639.4799"/><text fill="#000000" font-family="sans-serif" font-size="14" lengthAdjust="spacing" textLength="298.0308" x="2617.5" y="658.4459">+elegivel(solicitante: T, candidato: T): boolean</text><text fill="#000000" font-family="sans-serif" font-size="14" lengthAdjust="spacing" textLength="418.5426" x="2617.5" y="677.5138">+calcular(solicitante: T, candidato: T): ResultadoCompatibilidade</text></g><!--class ManifestacaoInteresseFramework--><g class="entity" data-qualified-name="Elo Framework - Nucleo.ManifestacaoInteresseFramework" data-source-line="23" id="ent0005"><rect fill="#F1F1F1" height="137.6837" rx="2.5" ry="2.5" style="stroke:#181818;stroke-width:0.5;" width="241.5652" x="1927" y="289.0679"/><ellipse cx="1942" cy="311.7739" fill="#B4A7E5" rx="11" ry="11" style="stroke:#181818;stroke-width:1;"/><path d="M1937.9219,307.5396 L1937.9219,305.3833 L1945.3125,305.3833 L1945.3125,307.5396 L1942.8438,307.5396 L1942.8438,315.6177 L1945.3125,315.6177 L1945.3125,317.7739 L1937.9219,317.7739 L1937.9219,315.6177 L1940.3906,315.6177 L1940.3906,307.5396 L1937.9219,307.5396 Z " fill="#000000"/><text fill="#000000" font-family="sans-serif" font-size="12" font-style="italic" lengthAdjust="spacing" textLength="65.4244" x="2028.0704" y="306.896">&#171;ponto fixo&#187;</text><text fill="#000000" font-family="sans-serif" font-size="14" font-style="italic" lengthAdjust="spacing" textLength="209.5652" x="1956" y="325.378">ManifestacaoInteresseFramework</text><line style="stroke:#181818;stroke-width:0.5;" x1="1928" x2="2167.5652" y1="334.4799" y2="334.4799"/><line style="stroke:#181818;stroke-width:0.5;" x1="1928" x2="2167.5652" y1="342.4799" y2="342.4799"/><text fill="#000000" font-family="sans-serif" font-size="14" lengthAdjust="spacing" textLength="91.7836" x="1933" y="361.4459">+getId(): Long</text><text fill="#000000" font-family="sans-serif" font-size="14" lengthAdjust="spacing" textLength="170.1554" x="1933" y="380.5138">+getInteressadoId(): Long</text><text fill="#000000" font-family="sans-serif" font-size="14" lengthAdjust="spacing" textLength="134.1195" x="1933" y="399.5817">+getOfertaId(): Long</text><text fill="#000000" font-family="sans-serif" font-size="14" lengthAdjust="spacing" textLength="125.7615" x="1933" y="418.6496">+getStatus(): String</text></g><!--class ResultadoCompatibilidade--><g class="entity" data-qualified-name="Elo Framework - Nucleo.ResultadoCompatibilidade" data-source-line="30" id="ent0006"><rect fill="#F1F1F1" height="118.6158" rx="2.5" ry="2.5" style="stroke:#181818;stroke-width:0.5;" width="229.2372" x="1662.5" y="298.5679"/><ellipse cx="1688.1748" cy="321.2739" fill="#ADD1B2" rx="11" ry="11" style="stroke:#181818;stroke-width:1;"/><path d="M1691.1436,326.9146 Q1690.5654,327.2114 1689.9248,327.3521 Q1689.2842,327.5083 1688.5811,327.5083 Q1686.0811,327.5083 1684.7529,325.8677 Q1683.4404,324.2114 1683.4404,321.0864 Q1683.4404,317.9614 1684.7529,316.3052 Q1686.0811,314.6489 1688.5811,314.6489 Q1689.2842,314.6489 1689.9248,314.8052 Q1690.5811,314.9614 1691.1436,315.2583 L1691.1436,317.9771 Q1690.5186,317.3989 1689.9248,317.1333 Q1689.3311,316.8521 1688.7061,316.8521 Q1687.3623,316.8521 1686.6748,317.9302 Q1685.9873,318.9927 1685.9873,321.0864 Q1685.9873,323.1802 1686.6748,324.2583 Q1687.3623,325.3208 1688.7061,325.3208 Q1689.3311,325.3208 1689.9248,325.0552 Q1690.5186,324.7739 1691.1436,324.1958 L1691.1436,326.9146 Z " fill="#000000"/><text fill="#000000" font-family="sans-serif" font-size="12" font-style="italic" lengthAdjust="spacing" textLength="65.4244" x="1758.5925" y="316.396">&#171;ponto fixo&#187;</text><text fill="#000000" font-family="sans-serif" font-size="14" lengthAdjust="spacing" textLength="173.5154" x="1704.547" y="334.878">ResultadoCompatibilidade</text><line style="stroke:#181818;stroke-width:0.5;" x1="1663.5" x2="1890.7372" y1="343.9799" y2="343.9799"/><text fill="#000000" font-family="sans-serif" font-size="14" lengthAdjust="spacing" textLength="99.9456" x="1668.5" y="362.9459">-percentual: int</text><text fill="#000000" font-family="sans-serif" font-size="14" lengthAdjust="spacing" textLength="125.5655" x="1668.5" y="382.0138">-justificativa: String</text><text fill="#000000" font-family="sans-serif" font-size="14" lengthAdjust="spacing" textLength="217.2372" x="1668.5" y="401.0817">-origem: OrigemCompatibilidade</text><line style="stroke:#181818;stroke-width:0.5;" x1="1663.5" x2="1890.7372" y1="409.1837" y2="409.1837"/></g><!--class CompatibilidadeService--><g class="entity" data-qualified-name="Elo Framework - Nucleo.CompatibilidadeService" data-source-line="36" id="ent0007"><rect fill="#F1F1F1" height="99.5479" rx="2.5" ry="2.5" style="stroke:#181818;stroke-width:0.5;" width="629.3558" x="2413.5" y="308.0679"/><ellipse cx="2641.5932" cy="330.7739" fill="#ADD1B2" rx="11" ry="11" style="stroke:#181818;stroke-width:1;"/><path d="M2644.5619,336.4146 Q2643.9838,336.7114 2643.3432,336.8521 Q2642.7026,337.0083 2641.9994,337.0083 Q2639.4994,337.0083 2638.1713,335.3677 Q2636.8588,333.7114 2636.8588,330.5864 Q2636.8588,327.4614 2638.1713,325.8052 Q2639.4994,324.1489 2641.9994,324.1489 Q2642.7026,324.1489 2643.3432,324.3052 Q2643.9994,324.4614 2644.5619,324.7583 L2644.5619,327.4771 Q2643.9369,326.8989 2643.3432,326.6333 Q2642.7494,326.3521 2642.1244,326.3521 Q2640.7807,326.3521 2640.0932,327.4302 Q2639.4057,328.4927 2639.4057,330.5864 Q2639.4057,332.6802 2640.0932,333.7583 Q2640.7807,334.8208 2642.1244,334.8208 Q2642.7494,334.8208 2643.3432,334.5552 Q2643.9369,334.2739 2644.5619,333.6958 L2644.5619,336.4146 Z " fill="#000000"/><text fill="#000000" font-family="sans-serif" font-size="12" font-style="italic" lengthAdjust="spacing" textLength="65.4244" x="2706.7097" y="325.896">&#171;ponto fixo&#187;</text><text fill="#000000" font-family="sans-serif" font-size="14" lengthAdjust="spacing" textLength="154.6574" x="2662.0932" y="344.378">CompatibilidadeService</text><rect fill="#FFFFFF" height="18.3441" style="stroke:#181818;stroke-width:1;stroke-dasharray:2,2;" width="8.012" x="3037.8438" y="305.0679"/><text fill="#000000" font-family="sans-serif" font-size="12" font-style="italic" lengthAdjust="spacing" textLength="6.012" x="3038.8438" y="318.896">T</text><line style="stroke:#181818;stroke-width:0.5;" x1="2414.5" x2="3041.8558" y1="353.4799" y2="353.4799"/><text fill="#000000" font-family="sans-serif" font-size="14" lengthAdjust="spacing" textLength="252.8251" x="2419.5" y="372.4459">-strategy: CompatibilidadeStrategy&lt;T&gt;</text><line style="stroke:#181818;stroke-width:0.5;" x1="2414.5" x2="3041.8558" y1="380.5479" y2="380.5479"/><text fill="#000000" font-family="sans-serif" font-size="14" lengthAdjust="spacing" textLength="617.3558" x="2419.5" y="399.5138">+calcularCompatibilidades(solicitante: T, candidatos: List&lt;T&gt;): List&lt;ResultadoCompatibilidade&gt;</text></g><!--class Usuario--><g class="entity" data-qualified-name="Apto - Instancia do Framework.Usuario" data-source-line="44" id="ent0009"><rect fill="#F1F1F1" height="118.6158" rx="2.5" ry="2.5" style="stroke:#181818;stroke-width:0.5;" width="158.5729" x="22.5" y="85.0679"/><ellipse cx="37.5" cy="107.7739" fill="#ADD1B2" rx="11" ry="11" style="stroke:#181818;stroke-width:1;"/><path d="M40.4688,113.4146 Q39.8906,113.7114 39.25,113.8521 Q38.6094,114.0083 37.9063,114.0083 Q35.4063,114.0083 34.0781,112.3677 Q32.7656,110.7114 32.7656,107.5864 Q32.7656,104.4614 34.0781,102.8052 Q35.4063,101.1489 37.9063,101.1489 Q38.6094,101.1489 39.25,101.3052 Q39.9063,101.4614 40.4688,101.7583 L40.4688,104.4771 Q39.8438,103.8989 39.25,103.6333 Q38.6563,103.3521 38.0313,103.3521 Q36.6875,103.3521 36,104.4302 Q35.3125,105.4927 35.3125,107.5864 Q35.3125,109.6802 36,110.7583 Q36.6875,111.8208 38.0313,111.8208 Q38.6563,111.8208 39.25,111.5552 Q39.8438,111.2739 40.4688,110.6958 L40.4688,113.4146 Z " fill="#000000"/><text fill="#000000" font-family="sans-serif" font-size="12" font-style="italic" lengthAdjust="spacing" textLength="130.5729" x="49.5" y="102.896">&#171;ponto fixo instanciado&#187;</text><text fill="#000000" font-family="sans-serif" font-size="14" lengthAdjust="spacing" textLength="51.3098" x="89.1315" y="121.378">Usuario</text><line style="stroke:#181818;stroke-width:0.5;" x1="23.5" x2="180.0729" y1="130.4799" y2="130.4799"/><text fill="#000000" font-family="sans-serif" font-size="14" lengthAdjust="spacing" textLength="57.1898" x="28.5" y="149.4459">-id: Long</text><text fill="#000000" font-family="sans-serif" font-size="14" lengthAdjust="spacing" textLength="89.4037" x="28.5" y="168.5138">-nome: String</text><text fill="#000000" font-family="sans-serif" font-size="14" lengthAdjust="spacing" textLength="87.3597" x="28.5" y="187.5817">-email: String</text><line style="stroke:#181818;stroke-width:0.5;" x1="23.5" x2="180.0729" y1="195.6837" y2="195.6837"/></g><!--class UsuarioUniversitario--><g class="entity" data-qualified-name="Apto - Instancia do Framework.UsuarioUniversitario" data-source-line="50" id="ent0010"><rect fill="#F1F1F1" height="99.5479" rx="2.5" ry="2.5" style="stroke:#181818;stroke-width:0.5;" width="167.6875" x="991" y="308.0679"/><ellipse cx="1006" cy="330.7739" fill="#ADD1B2" rx="11" ry="11" style="stroke:#181818;stroke-width:1;"/><path d="M1008.9688,336.4146 Q1008.3906,336.7114 1007.75,336.8521 Q1007.1094,337.0083 1006.4063,337.0083 Q1003.9063,337.0083 1002.5781,335.3677 Q1001.2656,333.7114 1001.2656,330.5864 Q1001.2656,327.4614 1002.5781,325.8052 Q1003.9063,324.1489 1006.4063,324.1489 Q1007.1094,324.1489 1007.75,324.3052 Q1008.4063,324.4614 1008.9688,324.7583 L1008.9688,327.4771 Q1008.3438,326.8989 1007.75,326.6333 Q1007.1563,326.3521 1006.5313,326.3521 Q1005.1875,326.3521 1004.5,327.4302 Q1003.8125,328.4927 1003.8125,330.5864 Q1003.8125,332.6802 1004.5,333.7583 Q1005.1875,334.8208 1006.5313,334.8208 Q1007.1563,334.8208 1007.75,334.5552 Q1008.3438,334.2739 1008.9688,333.6958 L1008.9688,336.4146 Z " fill="#000000"/><text fill="#000000" font-family="sans-serif" font-size="12" font-style="italic" lengthAdjust="spacing" textLength="130.5729" x="1022.5573" y="325.896">&#171;ponto fixo instanciado&#187;</text><text fill="#000000" font-family="sans-serif" font-size="14" lengthAdjust="spacing" textLength="135.6875" x="1020" y="344.378">UsuarioUniversitario</text><line style="stroke:#181818;stroke-width:0.5;" x1="992" x2="1157.6875" y1="353.4799" y2="353.4799"/><text fill="#000000" font-family="sans-serif" font-size="14" lengthAdjust="spacing" textLength="87.6257" x="997" y="372.4459">-curso: String</text><text fill="#000000" font-family="sans-serif" font-size="14" lengthAdjust="spacing" textLength="108.0936" x="997" y="391.5138">-genero: Genero</text><line style="stroke:#181818;stroke-width:0.5;" x1="992" x2="1157.6875" y1="399.6158" y2="399.6158"/></g><!--class Locador--><g class="entity" data-qualified-name="Apto - Instancia do Framework.Locador" data-source-line="55" id="ent0011"><rect fill="#F1F1F1" height="80.4799" rx="2.5" ry="2.5" style="stroke:#181818;stroke-width:0.5;" width="158.5729" x="407.5" y="457.0679"/><ellipse cx="422.5" cy="479.7739" fill="#ADD1B2" rx="11" ry="11" style="stroke:#181818;stroke-width:1;"/><path d="M425.4688,485.4146 Q424.8906,485.7114 424.25,485.8521 Q423.6094,486.0083 422.9063,486.0083 Q420.4063,486.0083 419.0781,484.3677 Q417.7656,482.7114 417.7656,479.5864 Q417.7656,476.4614 419.0781,474.8052 Q420.4063,473.1489 422.9063,473.1489 Q423.6094,473.1489 424.25,473.3052 Q424.9063,473.4614 425.4688,473.7583 L425.4688,476.4771 Q424.8438,475.8989 424.25,475.6333 Q423.6563,475.3521 423.0313,475.3521 Q421.6875,475.3521 421,476.4302 Q420.3125,477.4927 420.3125,479.5864 Q420.3125,481.6802 421,482.7583 Q421.6875,483.8208 423.0313,483.8208 Q423.6563,483.8208 424.25,483.5552 Q424.8438,483.2739 425.4688,482.6958 L425.4688,485.4146 Z " fill="#000000"/><text fill="#000000" font-family="sans-serif" font-size="12" font-style="italic" lengthAdjust="spacing" textLength="130.5729" x="434.5" y="474.896">&#171;ponto fixo instanciado&#187;</text><text fill="#000000" font-family="sans-serif" font-size="14" lengthAdjust="spacing" textLength="53.2418" x="473.1655" y="493.378">Locador</text><line style="stroke:#181818;stroke-width:0.5;" x1="408.5" x2="565.0729" y1="502.4799" y2="502.4799"/><text fill="#000000" font-family="sans-serif" font-size="14" lengthAdjust="spacing" textLength="105.5876" x="413.5" y="521.4459">-telefone: String</text><line style="stroke:#181818;stroke-width:0.5;" x1="408.5" x2="565.0729" y1="529.5479" y2="529.5479"/></g><!--class PerfilConvivencia--><g class="entity" data-qualified-name="Apto - Instancia do Framework.PerfilConvivencia" data-source-line="59" id="ent0012"><rect fill="#F1F1F1" height="137.6837" rx="2.5" ry="2.5" style="stroke:#181818;stroke-width:0.5;" width="177.1014" x="986.5" y="567.0679"/><ellipse cx="1016.0682" cy="589.7739" fill="#ADD1B2" rx="11" ry="11" style="stroke:#181818;stroke-width:1;"/><path d="M1019.037,595.4146 Q1018.4588,595.7114 1017.8182,595.8521 Q1017.1776,596.0083 1016.4745,596.0083 Q1013.9745,596.0083 1012.6463,594.3677 Q1011.3338,592.7114 1011.3338,589.5864 Q1011.3338,586.4614 1012.6463,584.8052 Q1013.9745,583.1489 1016.4745,583.1489 Q1017.1776,583.1489 1017.8182,583.3052 Q1018.4745,583.4614 1019.037,583.7583 L1019.037,586.4771 Q1018.412,585.8989 1017.8182,585.6333 Q1017.2245,585.3521 1016.5995,585.3521 Q1015.2557,585.3521 1014.5682,586.4302 Q1013.8807,587.4927 1013.8807,589.5864 Q1013.8807,591.6802 1014.5682,592.7583 Q1015.2557,593.8208 1016.5995,593.8208 Q1017.2245,593.8208 1017.8182,593.5552 Q1018.412,593.2739 1019.037,592.6958 L1019.037,595.4146 Z " fill="#000000"/><text fill="#000000" font-family="sans-serif" font-size="12" font-style="italic" lengthAdjust="spacing" textLength="90.9966" x="1044.1711" y="584.896">&#171;dados de perfil&#187;</text><text fill="#000000" font-family="sans-serif" font-size="14" lengthAdjust="spacing" textLength="112.7275" x="1033.3056" y="603.378">PerfilConvivencia</text><line style="stroke:#181818;stroke-width:0.5;" x1="987.5" x2="1162.6014" y1="612.4799" y2="612.4799"/><text fill="#000000" font-family="sans-serif" font-size="14" lengthAdjust="spacing" textLength="121.4775" x="992.5" y="631.4459">-fumante: boolean</text><text fill="#000000" font-family="sans-serif" font-size="14" lengthAdjust="spacing" textLength="156.9254" x="992.5" y="650.5138">-aceitaAnimais: boolean</text><text fill="#000000" font-family="sans-serif" font-size="14" lengthAdjust="spacing" textLength="133.1955" x="992.5" y="669.5817">-horarioSono: String</text><text fill="#000000" font-family="sans-serif" font-size="14" lengthAdjust="spacing" textLength="165.1014" x="992.5" y="688.6496">-nivelOrganizacao: String</text><line style="stroke:#181818;stroke-width:0.5;" x1="987.5" x2="1162.6014" y1="696.7516" y2="696.7516"/></g><!--class Anuncio--><g class="entity" data-qualified-name="Apto - Instancia do Framework.Anuncio" data-source-line="66" id="ent0013"><rect fill="#F1F1F1" height="137.6837" rx="2.5" ry="2.5" style="stroke:#181818;stroke-width:0.5;" width="125.6656" x="1255" y="784.0679"/><ellipse cx="1276.3545" cy="806.7739" fill="#ADD1B2" rx="11" ry="11" style="stroke:#181818;stroke-width:1;"/><path d="M1279.3232,812.4146 Q1278.7451,812.7114 1278.1045,812.8521 Q1277.4638,813.0083 1276.7607,813.0083 Q1274.2607,813.0083 1272.9326,811.3677 Q1271.6201,809.7114 1271.6201,806.5864 Q1271.6201,803.4614 1272.9326,801.8052 Q1274.2607,800.1489 1276.7607,800.1489 Q1277.4638,800.1489 1278.1045,800.3052 Q1278.7607,800.4614 1279.3232,800.7583 L1279.3232,803.4771 Q1278.6982,802.8989 1278.1045,802.6333 Q1277.5107,802.3521 1276.8857,802.3521 Q1275.542,802.3521 1274.8545,803.4302 Q1274.167,804.4927 1274.167,806.5864 Q1274.167,808.6802 1274.8545,809.7583 Q1275.542,810.8208 1276.8857,810.8208 Q1277.5107,810.8208 1278.1045,810.5552 Q1278.6982,810.2739 1279.3232,809.6958 L1279.3232,812.4146 Z " fill="#000000"/><text fill="#000000" font-family="sans-serif" font-size="12" font-style="italic" lengthAdjust="spacing" textLength="83.5446" x="1289.7666" y="801.896">&#171;tipo de oferta&#187;</text><text fill="#000000" font-family="sans-serif" font-size="14" lengthAdjust="spacing" textLength="53.7038" x="1304.6869" y="820.378">Anuncio</text><line style="stroke:#181818;stroke-width:0.5;" x1="1256" x2="1379.6656" y1="829.4799" y2="829.4799"/><text fill="#000000" font-family="sans-serif" font-size="14" lengthAdjust="spacing" textLength="57.1898" x="1261" y="848.4459">-id: Long</text><text fill="#000000" font-family="sans-serif" font-size="14" lengthAdjust="spacing" textLength="85.7497" x="1261" y="867.5138">-titulo: String</text><text fill="#000000" font-family="sans-serif" font-size="14" lengthAdjust="spacing" textLength="113.6656" x="1261" y="886.5817">-descricao: String</text><text fill="#000000" font-family="sans-serif" font-size="14" lengthAdjust="spacing" textLength="97.5656" x="1261" y="905.6496">-ativo: boolean</text><line style="stroke:#181818;stroke-width:0.5;" x1="1256" x2="1379.6656" y1="913.7516" y2="913.7516"/></g><!--class Moradia--><g class="entity" data-qualified-name="Apto - Instancia do Framework.Moradia" data-source-line="73" id="ent0014"><rect fill="#F1F1F1" height="137.6837" rx="2.5" ry="2.5" style="stroke:#181818;stroke-width:0.5;" width="184.2891" x="1226" y="983.0679"/><ellipse cx="1241" cy="1005.7739" fill="#ADD1B2" rx="11" ry="11" style="stroke:#181818;stroke-width:1;"/><path d="M1243.9688,1011.4146 Q1243.3906,1011.7114 1242.75,1011.8521 Q1242.1094,1012.0083 1241.4063,1012.0083 Q1238.9063,1012.0083 1237.5781,1010.3677 Q1236.2656,1008.7114 1236.2656,1005.5864 Q1236.2656,1002.4614 1237.5781,1000.8052 Q1238.9063,999.1489 1241.4063,999.1489 Q1242.1094,999.1489 1242.75,999.3052 Q1243.4063,999.4614 1243.9688,999.7583 L1243.9688,1002.4771 Q1243.3438,1001.8989 1242.75,1001.6333 Q1242.1563,1001.3521 1241.5313,1001.3521 Q1240.1875,1001.3521 1239.5,1002.4302 Q1238.8125,1003.4927 1238.8125,1005.5864 Q1238.8125,1007.6802 1239.5,1008.7583 Q1240.1875,1009.8208 1241.5313,1009.8208 Q1242.1563,1009.8208 1242.75,1009.5552 Q1243.3438,1009.2739 1243.9688,1008.6958 L1243.9688,1011.4146 Z " fill="#000000"/><text fill="#000000" font-family="sans-serif" font-size="12" font-style="italic" lengthAdjust="spacing" textLength="156.2891" x="1253" y="1000.896">&#171;dados especificos da oferta&#187;</text><text fill="#000000" font-family="sans-serif" font-size="14" lengthAdjust="spacing" textLength="54.8798" x="1303.7046" y="1019.378">Moradia</text><line style="stroke:#181818;stroke-width:0.5;" x1="1227" x2="1409.2891" y1="1028.4799" y2="1028.4799"/><text fill="#000000" font-family="sans-serif" font-size="14" lengthAdjust="spacing" textLength="57.1898" x="1232" y="1047.4459">-id: Long</text><text fill="#000000" font-family="sans-serif" font-size="14" lengthAdjust="spacing" textLength="113.2176" x="1232" y="1066.5138">-endereco: String</text><text fill="#000000" font-family="sans-serif" font-size="14" lengthAdjust="spacing" textLength="169.0353" x="1232" y="1085.5817">-valorAluguel: BigDecimal</text><text fill="#000000" font-family="sans-serif" font-size="14" lengthAdjust="spacing" textLength="144.0455" x="1232" y="1104.6496">-quantidadeVagas: int</text><line style="stroke:#181818;stroke-width:0.5;" x1="1227" x2="1409.2891" y1="1112.7516" y2="1112.7516"/></g><!--class ManifestacaoInteresse--><g class="entity" data-qualified-name="Apto - Instancia do Framework.ManifestacaoInteresse" data-source-line="80" id="ent0015"><rect fill="#F1F1F1" height="118.6158" rx="2.5" ry="2.5" style="stroke:#181818;stroke-width:0.5;" width="238.8551" x="1198.5" y="576.5679"/><ellipse cx="1239.3011" cy="599.2739" fill="#ADD1B2" rx="11" ry="11" style="stroke:#181818;stroke-width:1;"/><path d="M1242.2698,604.9146 Q1241.6917,605.2114 1241.0511,605.3521 Q1240.4104,605.5083 1239.7073,605.5083 Q1237.2073,605.5083 1235.8792,603.8677 Q1234.5667,602.2114 1234.5667,599.0864 Q1234.5667,595.9614 1235.8792,594.3052 Q1237.2073,592.6489 1239.7073,592.6489 Q1240.4104,592.6489 1241.0511,592.8052 Q1241.7073,592.9614 1242.2698,593.2583 L1242.2698,595.9771 Q1241.6448,595.3989 1241.0511,595.1333 Q1240.4573,594.8521 1239.8323,594.8521 Q1238.4886,594.8521 1237.8011,595.9302 Q1237.1136,596.9927 1237.1136,599.0864 Q1237.1136,601.1802 1237.8011,602.2583 Q1238.4886,603.3208 1239.8323,603.3208 Q1240.4573,603.3208 1241.0511,603.0552 Q1241.6448,602.7739 1242.2698,602.1958 L1242.2698,604.9146 Z " fill="#000000"/><text fill="#000000" font-family="sans-serif" font-size="12" font-style="italic" lengthAdjust="spacing" textLength="130.5729" x="1268.5079" y="594.396">&#171;ponto fixo instanciado&#187;</text><text fill="#000000" font-family="sans-serif" font-size="14" lengthAdjust="spacing" textLength="149.5194" x="1259.0346" y="612.878">ManifestacaoInteresse</text><line style="stroke:#181818;stroke-width:0.5;" x1="1199.5" x2="1436.3551" y1="621.9799" y2="621.9799"/><text fill="#000000" font-family="sans-serif" font-size="14" lengthAdjust="spacing" textLength="57.1898" x="1204.5" y="640.9459">-id: Long</text><text fill="#000000" font-family="sans-serif" font-size="14" lengthAdjust="spacing" textLength="181.1173" x="1204.5" y="660.0138">-status: StatusManifestacao</text><text fill="#000000" font-family="sans-serif" font-size="14" lengthAdjust="spacing" textLength="226.8551" x="1204.5" y="679.0817">-dataManifestacao: LocalDateTime</text><line style="stroke:#181818;stroke-width:0.5;" x1="1199.5" x2="1436.3551" y1="687.1837" y2="687.1837"/></g><!--class CompatibilidadeDeterministicaCalculator--><g class="entity" data-qualified-name="Apto - Instancia do Framework.CompatibilidadeDeterministicaCalculator" data-source-line="86" id="ent0016"><rect fill="#F1F1F1" height="99.5479" rx="2.5" ry="2.5" style="stroke:#181818;stroke-width:0.5;" width="686.3497" x="216" y="94.5679"/><ellipse cx="419.8394" cy="117.2739" fill="#ADD1B2" rx="11" ry="11" style="stroke:#181818;stroke-width:1;"/><path d="M422.8081,122.9146 Q422.23,123.2114 421.5894,123.3521 Q420.9488,123.5083 420.2456,123.5083 Q417.7456,123.5083 416.4175,121.8677 Q415.105,120.2114 415.105,117.0864 Q415.105,113.9614 416.4175,112.3052 Q417.7456,110.6489 420.2456,110.6489 Q420.9488,110.6489 421.5894,110.8052 Q422.2456,110.9614 422.8081,111.2583 L422.8081,113.9771 Q422.1831,113.3989 421.5894,113.1333 Q420.9956,112.8521 420.3706,112.8521 Q419.0269,112.8521 418.3394,113.9302 Q417.6519,114.9927 417.6519,117.0864 Q417.6519,119.1802 418.3394,120.2583 Q419.0269,121.3208 420.3706,121.3208 Q420.9956,121.3208 421.5894,121.0552 Q422.1831,120.7739 422.8081,120.1958 L422.8081,122.9146 Z " fill="#000000"/><text fill="#000000" font-family="sans-serif" font-size="12" font-style="italic" lengthAdjust="spacing" textLength="155.0051" x="497.9223" y="112.396">&#171;criterio de compatibilidade&#187;</text><text fill="#000000" font-family="sans-serif" font-size="14" lengthAdjust="spacing" textLength="270.171" x="440.3394" y="130.878">CompatibilidadeDeterministicaCalculator</text><line style="stroke:#181818;stroke-width:0.5;" x1="217" x2="901.3497" y1="139.9799" y2="139.9799"/><line style="stroke:#181818;stroke-width:0.5;" x1="217" x2="901.3497" y1="147.9799" y2="147.9799"/><text fill="#000000" font-family="sans-serif" font-size="14" lengthAdjust="spacing" textLength="553.838" x="222" y="166.9459">+elegivel(solicitante: UsuarioUniversitario, candidato: UsuarioUniversitario): boolean</text><text fill="#000000" font-family="sans-serif" font-size="14" lengthAdjust="spacing" textLength="674.3497" x="222" y="186.0138">+calcular(solicitante: UsuarioUniversitario, candidato: UsuarioUniversitario): ResultadoCompatibilidade</text></g><!--class MatchmakingService--><g class="entity" data-qualified-name="Apto - Instancia do Framework.MatchmakingService" data-source-line="91" id="ent0017"><rect fill="#F1F1F1" height="99.5479" rx="2.5" ry="2.5" style="stroke:#181818;stroke-width:0.5;" width="499.5343" x="937" y="94.5679"/><ellipse cx="1114.0294" cy="117.2739" fill="#ADD1B2" rx="11" ry="11" style="stroke:#181818;stroke-width:1;"/><path d="M1116.9982,122.9146 Q1116.42,123.2114 1115.7794,123.3521 Q1115.1388,123.5083 1114.4357,123.5083 Q1111.9357,123.5083 1110.6075,121.8677 Q1109.295,120.2114 1109.295,117.0864 Q1109.295,113.9614 1110.6075,112.3052 Q1111.9357,110.6489 1114.4357,110.6489 Q1115.1388,110.6489 1115.7794,110.8052 Q1116.4357,110.9614 1116.9982,111.2583 L1116.9982,113.9771 Q1116.3732,113.3989 1115.7794,113.1333 Q1115.1857,112.8521 1114.5607,112.8521 Q1113.2169,112.8521 1112.5294,113.9302 Q1111.8419,114.9927 1111.8419,117.0864 Q1111.8419,119.1802 1112.5294,120.2583 Q1113.2169,121.3208 1114.5607,121.3208 Q1115.1857,121.3208 1115.7794,121.0552 Q1116.3732,120.7739 1116.9982,120.1958 L1116.9982,122.9146 Z " fill="#000000"/><text fill="#000000" font-family="sans-serif" font-size="12" font-style="italic" lengthAdjust="spacing" textLength="130.5729" x="1137.7307" y="112.396">&#171;ponto fixo instanciado&#187;</text><text fill="#000000" font-family="sans-serif" font-size="14" lengthAdjust="spacing" textLength="136.9755" x="1134.5294" y="130.878">MatchmakingService</text><line style="stroke:#181818;stroke-width:0.5;" x1="938" x2="1435.5343" y1="139.9799" y2="139.9799"/><text fill="#000000" font-family="sans-serif" font-size="14" lengthAdjust="spacing" textLength="487.5343" x="943" y="158.9459">-compatibilidadeStrategy: CompatibilidadeStrategy&lt;UsuarioUniversitario&gt;</text><line style="stroke:#181818;stroke-width:0.5;" x1="938" x2="1435.5343" y1="167.0479" y2="167.0479"/><text fill="#000000" font-family="sans-serif" font-size="14" lengthAdjust="spacing" textLength="439.4865" x="943" y="186.0138">+buscarMatches(usuarioId: Long): List&lt;ResultadoCompatibilidade&gt;</text></g><g class="entity" data-qualified-name="GMN33" data-source-line="118" id="ent0034"><path d="M3220,317.5679 L3220,398.392 L3406.0091,398.392 L3406.0091,327.5679 L3396.0091,317.5679 L3220,317.5679" fill="#FEFFDD" style="stroke:#181818;stroke-width:0.5;"/><path d="M3396.0091,317.5679 L3396.0091,327.5679 L3406.0091,327.5679 L3396.0091,317.5679" fill="#FEFFDD" style="stroke:#181818;stroke-width:1;"/><text fill="#000000" font-family="sans-serif" font-size="13" lengthAdjust="spacing" textLength="85.8651" x="3226" y="336.4649">Ponto flexivel:</text><text fill="#000000" font-family="sans-serif" font-size="13" lengthAdjust="spacing" textLength="128.6221" x="3226" y="354.1709">cada instancia define</text><text fill="#000000" font-family="sans-serif" font-size="13" lengthAdjust="spacing" textLength="112.8271" x="3226" y="371.877">os dados do perfil.</text><text fill="#000000" font-family="sans-serif" font-size="13" lengthAdjust="spacing" textLength="165.0091" x="3226" y="389.583">No Apto: PerfilConvivencia.</text></g><g class="entity" data-qualified-name="GMN36" data-source-line="125" id="ent0037"><path d="M3440.5,317.5679 L3440.5,398.392 L3627.4972,398.392 L3627.4972,327.5679 L3617.4972,317.5679 L3440.5,317.5679" fill="#FEFFDD" style="stroke:#181818;stroke-width:0.5;"/><path d="M3617.4972,317.5679 L3617.4972,327.5679 L3627.4972,327.5679 L3617.4972,317.5679" fill="#FEFFDD" style="stroke:#181818;stroke-width:1;"/><text fill="#000000" font-family="sans-serif" font-size="13" lengthAdjust="spacing" textLength="85.8651" x="3446.5" y="336.4649">Ponto flexivel:</text><text fill="#000000" font-family="sans-serif" font-size="13" lengthAdjust="spacing" textLength="128.6221" x="3446.5" y="354.1709">cada instancia define</text><text fill="#000000" font-family="sans-serif" font-size="13" lengthAdjust="spacing" textLength="160.6801" x="3446.5" y="371.877">o tipo de oferta publicada.</text><text fill="#000000" font-family="sans-serif" font-size="13" lengthAdjust="spacing" textLength="165.9972" x="3446.5" y="389.583">No Apto: Anuncio/Moradia.</text></g><g class="entity" data-qualified-name="GMN39" data-source-line="132" id="ent0040"><path d="M3078,586.5679 L3078,632.0679 L3042.8,636.0679 L3078,640.0679 L3078,685.098 A0,0 0 0 0 3078,685.098 L3290.1132,685.098 A0,0 0 0 0 3290.1132,685.098 L3290.1132,596.5679 L3280.1132,586.5679 L3078,586.5679 A0,0 0 0 0 3078,586.5679" fill="#FEFFDD" style="stroke:#181818;stroke-width:0.5;"/><path d="M3280.1132,586.5679 L3280.1132,596.5679 L3290.1132,596.5679 L3280.1132,586.5679" fill="#FEFFDD" style="stroke:#181818;stroke-width:0.5;"/><text fill="#000000" font-family="sans-serif" font-size="13" lengthAdjust="spacing" textLength="85.8651" x="3084" y="605.4649">Ponto flexivel:</text><text fill="#000000" font-family="sans-serif" font-size="13" lengthAdjust="spacing" textLength="128.6221" x="3084" y="623.1709">cada instancia define</text><text fill="#000000" font-family="sans-serif" font-size="13" lengthAdjust="spacing" textLength="191.1132" x="3084" y="640.877">os criterios de compatibilidade.</text><text fill="#000000" font-family="sans-serif" font-size="13" lengthAdjust="spacing" textLength="155.1161" x="3084" y="658.583">No Apto: compatibilidade</text><text fill="#000000" font-family="sans-serif" font-size="13" lengthAdjust="spacing" textLength="93.1451" x="3084" y="676.289">de convivencia.</text></g><g class="entity" data-qualified-name="GMN42" data-source-line="140" id="ent0043"><path d="M3663,317.5679 L3663,398.392 L3875.2042,398.392 L3875.2042,327.5679 L3865.2042,317.5679 L3663,317.5679" fill="#FEFFDD" style="stroke:#181818;stroke-width:0.5;"/><path d="M3865.2042,317.5679 L3865.2042,327.5679 L3875.2042,327.5679 L3865.2042,317.5679" fill="#FEFFDD" style="stroke:#181818;stroke-width:1;"/><text fill="#000000" font-family="sans-serif" font-size="13" lengthAdjust="spacing" textLength="65.7541" x="3669" y="336.4649">Ponto fixo:</text><text fill="#000000" font-family="sans-serif" font-size="13" lengthAdjust="spacing" textLength="152.1911" x="3669" y="354.1709">todas as instancias usam</text><text fill="#000000" font-family="sans-serif" font-size="13" lengthAdjust="spacing" textLength="160.9271" x="3669" y="371.877">Manifestacao de Interesse</text><text fill="#000000" font-family="sans-serif" font-size="13" lengthAdjust="spacing" textLength="191.2042" x="3669" y="389.583">como mecanismo de interacao.</text></g><!--reverse link Usuario to UsuarioUniversitario--><g class="link" data-entity-1="ent0009" data-entity-2="ent0010" data-link-type="extension" data-source-line="97" id="lnk18"><path codeLine="97" d="M197.8241,204.3613 C203.6041,207.1113 193.2,201.8979 199,204.0679 C272.8,231.6579 785.86,312.5279 990.76,344.1679" fill="none" id="Usuario-backto-UsuarioUniversitario" style="stroke:#181818;stroke-width:1;"/><polygon fill="none" points="181.57,196.6279,195.2463,209.7793,200.4019,198.9432,181.57,196.6279" style="stroke:#181818;stroke-width:1;stroke-linejoin:miter;stroke-miterlimit:10;"/></g><!--reverse link Usuario to Locador--><g class="link" data-entity-1="ent0009" data-entity-2="ent0011" data-link-type="extension" data-source-line="98" id="lnk19"><path codeLine="98" d="M179.7512,216.3545 C258.5312,288.0645 376.35,395.3379 443.89,456.8179" fill="none" id="Usuario-backto-Locador" style="stroke:#181818;stroke-width:1;"/><polygon fill="none" points="166.44,204.2379,175.7123,220.7916,183.7901,211.9175,166.44,204.2379" style="stroke:#181818;stroke-width:1;stroke-linejoin:miter;stroke-miterlimit:10;"/></g><!--link UsuarioUniversitario to PerfilConvivencia--><g class="link" data-entity-1="ent0010" data-entity-2="ent0012" data-link-type="association" data-source-line="100" id="lnk20"><path codeLine="100" d="M1075,408.0979 C1075,452.2379 1075,517.5679 1075,566.8179" fill="none" id="UsuarioUniversitario-PerfilConvivencia" style="stroke:#181818;stroke-width:1;"/><text fill="#000000" font-family="sans-serif" font-size="13" lengthAdjust="spacing" textLength="7.436" x="1067.5995" y="429.5683">1</text><text fill="#000000" font-family="sans-serif" font-size="13" lengthAdjust="spacing" textLength="7.436" x="1067.6355" y="555.2669">1</text></g><!--link Locador to Anuncio--><g class="link" data-entity-1="ent0011" data-entity-2="ent0013" data-link-type="association" data-source-line="101" id="lnk21"><path codeLine="101" d="M566.87,534.0179 C662.24,576.7479 826.72,649.8479 969,710.0679 C1068.4,752.1379 1184.65,798.9679 1254.73,826.9479" fill="none" id="Locador-Anuncio" style="stroke:#181818;stroke-width:1;"/><text fill="#000000" font-family="sans-serif" font-size="13" lengthAdjust="spacing" textLength="7.436" x="574.0717" y="533.3696">1</text><text fill="#000000" font-family="sans-serif" font-size="13" lengthAdjust="spacing" textLength="21.567" x="1225.2525" y="819.9011">0..*</text></g><!--link Anuncio to Moradia--><g class="link" data-entity-1="ent0013" data-entity-2="ent0014" data-link-type="association" data-source-line="102" id="lnk22"><path codeLine="102" d="M1318,922.1379 C1318,941.8279 1318,963.3079 1318,982.9979" fill="none" id="Anuncio-Moradia" style="stroke:#181818;stroke-width:1;"/><text fill="#000000" font-family="sans-serif" font-size="13" lengthAdjust="spacing" textLength="7.436" x="1310.6934" y="943.721">1</text><text fill="#000000" font-family="sans-serif" font-size="13" lengthAdjust="spacing" textLength="7.436" x="1310.6252" y="971.4666">1</text></g><!--link UsuarioUniversitario to ManifestacaoInteresse--><g class="link" data-entity-1="ent0010" data-entity-2="ent0015" data-link-type="association" data-source-line="104" id="lnk23"><path codeLine="104" d="M1118.16,408.0979 C1159.62,455.1879 1222.3,526.3679 1266.38,576.4379" fill="none" id="UsuarioUniversitario-ManifestacaoInteresse" style="stroke:#181818;stroke-width:1;"/><text fill="#000000" font-family="sans-serif" font-size="13" lengthAdjust="spacing" textLength="60.853" x="1226" y="502.4649">manifesta</text><text fill="#000000" font-family="sans-serif" font-size="13" lengthAdjust="spacing" textLength="7.436" x="1116.2894" y="429.5683">1</text><text fill="#000000" font-family="sans-serif" font-size="13" lengthAdjust="spacing" textLength="21.567" x="1237.4665" y="564.6756">0..*</text></g><!--link ManifestacaoInteresse to Anuncio--><g class="link" data-entity-1="ent0015" data-entity-2="ent0013" data-link-type="association" data-source-line="105" id="lnk24"><path codeLine="105" d="M1318,695.8179 C1318,723.0479 1318,755.5679 1318,783.8779" fill="none" id="ManifestacaoInteresse-Anuncio" style="stroke:#181818;stroke-width:1;"/><text fill="#000000" font-family="sans-serif" font-size="13" lengthAdjust="spacing" textLength="65.52" x="1319" y="749.9649">oferta alvo</text><text fill="#000000" font-family="sans-serif" font-size="13" lengthAdjust="spacing" textLength="21.567" x="1295.8905" y="717.2394">0..*</text><text fill="#000000" font-family="sans-serif" font-size="13" lengthAdjust="spacing" textLength="7.436" x="1310.6593" y="772.3335">1</text></g><!--reverse link PerfilFramework to PerfilConvivencia--><g class="link" data-entity-1="ent0002" data-entity-2="ent0012" data-link-type="extension" data-source-line="107" id="lnk25"><path codeLine="107" d="M1498.4872,409.2653 C1447.5972,449.4053 1377.07,499.9879 1295,537.0679 C1247.26,558.6379 1228.97,545.9979 1181,567.0679 C1175.19,569.6179 1169.34,572.4579 1163.53,575.4979" fill="none" id="PerfilFramework-backto-PerfilConvivencia" style="stroke:#181818;stroke-width:1;stroke-dasharray:7,7;"/><polygon fill="none" points="1512.62,398.1179,1494.7714,404.5544,1502.203,413.9762,1512.62,398.1179" style="stroke:#181818;stroke-width:1;stroke-linejoin:miter;stroke-miterlimit:10;"/></g><!--reverse link OfertaFramework to Anuncio--><g class="link" data-entity-1="ent0003" data-entity-2="ent0013" data-link-type="extension" data-source-line="108" id="lnk26"><path codeLine="108" d="M2188.4213,426.4989 C2182.7713,429.9189 2192.53,423.9179 2187,427.0679 C1893.91,593.6979 1526.11,760.3379 1381,824.5079" fill="none" id="OfertaFramework-backto-Anuncio" style="stroke:#181818;stroke-width:1;stroke-dasharray:7,7;"/><polygon fill="none" points="2203.82,417.1779,2185.3143,421.366,2191.5283,431.6318,2203.82,417.1779" style="stroke:#181818;stroke-width:1;stroke-linejoin:miter;stroke-miterlimit:10;"/></g><!--reverse link ManifestacaoInteresseFramework to ManifestacaoInteresse--><g class="link" data-entity-1="ent0005" data-entity-2="ent0015" data-link-type="extension" data-source-line="109" id="lnk27"><path codeLine="109" d="M1909.9717,427.359 C1903.9717,429.449 1914.96,425.4279 1909,427.0679 C1753.79,469.8479 1698.06,398.7379 1548,457.0679 C1480.94,483.1379 1417.27,535.3379 1374,576.4979" fill="none" id="ManifestacaoInteresseFramework-backto-ManifestacaoInteresse" style="stroke:#181818;stroke-width:1;stroke-dasharray:7,7;"/><polygon fill="none" points="1926.97,421.4379,1907.998,421.6929,1911.9454,433.0251,1926.97,421.4379" style="stroke:#181818;stroke-width:1;stroke-linejoin:miter;stroke-miterlimit:10;"/></g><!--reverse link CompatibilidadeStrategy to CompatibilidadeDeterministicaCalculator--><g class="link" data-entity-1="ent0004" data-entity-2="ent0016" data-link-type="extension" data-source-line="110" id="lnk28"><path codeLine="110" d="M2926.4441,575.8603 C2979.9341,539.5603 3029.64,494.8679 3060,427.0679 C3093.42,352.4279 3117.3,301.4179 3060,243.0679 C3018.34,200.6479 979.22,209.3779 920,204.0679 C892.81,201.6279 864.57,198.3579 836.39,194.6079" fill="none" id="CompatibilidadeStrategy-backto-CompatibilidadeDeterministicaCalculator" style="stroke:#181818;stroke-width:1;stroke-dasharray:7,7;"/><polygon fill="none" points="2911.55,585.9679,2929.8134,580.825,2923.0749,570.8956,2911.55,585.9679" style="stroke:#181818;stroke-width:1;stroke-linejoin:miter;stroke-miterlimit:10;"/></g><!--link CompatibilidadeService to CompatibilidadeStrategy--><g class="link" data-entity-1="ent0007" data-entity-2="ent0004" data-link-type="dependency" data-source-line="112" id="lnk29"><path codeLine="112" d="M2745.59,408.0979 C2763.59,458.2779 2789.7221,531.1414 2807.7221,581.3314" fill="none" id="CompatibilidadeService-to-CompatibilidadeStrategy" style="stroke:#181818;stroke-width:1;"/><polygon fill="#181818" points="2809.41,586.0379,2810.1369,576.2159,2807.7221,581.3314,2802.6066,578.9166,2809.41,586.0379" style="stroke:#181818;stroke-width:1;stroke-linejoin:miter;stroke-miterlimit:10;"/></g><!--link MatchmakingService to CompatibilidadeStrategy--><g class="link" data-entity-1="ent0017" data-entity-2="ent0004" data-link-type="dependency" data-source-line="113" id="lnk30"><path codeLine="113" d="M1437.39,147.9479 C1947.64,154.0179 3064.74,174.1279 3122,234.0679 C3215.02,331.4379 3200.8,427.8579 3122,537.0679 C3113.55,548.7779 3065.406,566.3381 3006.666,584.5381" fill="none" id="MatchmakingService-to-CompatibilidadeStrategy" style="stroke:#181818;stroke-width:1;"/><polygon fill="#181818" points="3001.89,586.0179,3011.6706,587.1751,3006.666,584.5381,3009.303,579.5335,3001.89,586.0179" style="stroke:#181818;stroke-width:1;stroke-linejoin:miter;stroke-miterlimit:10;"/></g><!--link MatchmakingService to ResultadoCompatibilidade--><g class="link" data-entity-1="ent0017" data-entity-2="ent0006" data-link-type="dependency" data-source-line="114" id="lnk31"><path codeLine="114" d="M1437.07,175.3079 C1506.79,189.7779 1580.93,211.2379 1645,243.0679 C1672.93,256.9479 1696.0825,274.7203 1718.1625,295.0603" fill="none" id="MatchmakingService-to-ResultadoCompatibilidade" style="stroke:#181818;stroke-width:1;"/><polygon fill="#181818" points="1721.84,298.4479,1717.9307,289.4082,1718.1625,295.0603,1712.5104,295.2921,1721.84,298.4479" style="stroke:#181818;stroke-width:1;stroke-linejoin:miter;stroke-miterlimit:10;"/></g><!--link CompatibilidadeDeterministicaCalculator to ResultadoCompatibilidade--><g class="link" data-entity-1="ent0016" data-entity-2="ent0006" data-link-type="dependency" data-source-line="115" id="lnk32"><path codeLine="115" d="M843.86,194.6279 C869.56,198.1779 895.22,201.3979 920,204.0679 C1000.21,212.6979 1570.17,212.9179 1645,243.0679 C1675.05,255.1779 1699.4247,273.624 1721.8247,295.024" fill="none" id="CompatibilidadeDeterministicaCalculator-to-ResultadoCompatibilidade" style="stroke:#181818;stroke-width:1;"/><polygon fill="#181818" points="1725.44,298.4779,1721.6956,289.3686,1721.8247,295.024,1716.1693,295.1531,1725.44,298.4779" style="stroke:#181818;stroke-width:1;stroke-linejoin:miter;stroke-miterlimit:10;"/></g><!--link PerfilFramework to GMN33--><g class="link" data-entity-1="ent0002" data-entity-2="ent0034" data-link-type="association" data-source-line="118" id="lnk35"><path d="M1577.15,317.8679 C1593.63,285.1779 1622.02,241.6279 1662.5,223.5679 C1700.88,206.4379 3136.58,207.6979 3175.5,223.5679 C3221.73,242.4179 3260.86,285.1179 3285.41,317.3879" fill="none" id="PerfilFramework-GMN33" style="stroke:#181818;stroke-width:1;stroke-dasharray:7,7;"/></g><!--link OfertaFramework to GMN36--><g class="link" data-entity-1="ent0003" data-entity-2="ent0037" data-link-type="association" data-source-line="125" id="lnk38"><path d="M2327.84,298.5379 C2349.02,270.1579 2378.4,239.0779 2413.5,223.5679 C2463.96,201.2779 3355.82,201.7779 3406.5,223.5679 C3450.69,242.5679 3486.75,285.2479 3509.1,317.4679" fill="none" id="OfertaFramework-GMN36" style="stroke:#181818;stroke-width:1;stroke-dasharray:7,7;"/></g><!--link ManifestacaoInteresseFramework to GMN42--><g class="link" data-entity-1="ent0005" data-entity-2="ent0043" data-link-type="association" data-source-line="140" id="lnk44"><path d="M2107.69,289.0279 C2134.39,263.2979 2168.05,237.0779 2204.5,223.5679 C2241.56,209.8279 3590.79,208.9079 3627.5,223.5679 C3674.56,242.3679 3714.91,285.0779 3740.34,317.3579" fill="none" id="ManifestacaoInteresseFramework-GMN42" style="stroke:#181818;stroke-width:1;stroke-dasharray:7,7;"/></g><?plantuml-src dLVVRzis47xdNq7agTrchtiL30DUqWq6sYPOqhsVgRF2XY8ralBQhltVTwIaM98fMqqGG2rvlFlkn_UHyT8hv6-LuNzOAF5VOv_uWh_Ltc81_0wiaA2uC2NVLDxmhNOUDAtbXZ7t97K5T8nN89wWm7l_XPnP56HJAEmP20NERRotSbTxt0gZx-LNv6yOQu_ogp663xLGQAxuVunnBhL7kmU1_8w-KXqDLwlAQ4AsL_XP7b2jrtI2qy_F1Vfj_kfrnjyPNT3Izw6ZsprQ3oznr2pTrJib1HN2ZZSbPIeF41PtnYW4VHhzsfGLUBcJIkQGK-KiU2o-h1xMPu2WmYAil7A6GakgiiUCF_p21UYS_7X3_nj4fKC2bAWLs4k7_a9NAq_vZA2TOdyFMkwH1a60sOPLT0uJXPIVpQKYTiSfR6AtQL5Yuzw3hrrOfiB9OtVZc4rcaaQsgD0ArBu6bOKacyLFjVDoJ_qDdUo5eIrZPO5bnc_ZTw9Q3P9nbz4UfC11amTGN3i6sPdv67PrPEUck-oeXj9vyl2w_TTKdTOnYUyzRaRkBuxivtcFgor5cum_kXgiD8FygAhFgd7CLUQzfYwqAN5OPYn1gdI3so0VDP71EafsNaHHMsU6GGhKQ6djp_WTHdbd8hjdEFP4pBtHc4RRADQrqGU26wktMb6PZUCqabNSFBhQrsNJkZw75yGwodAZ9TN4ZVOUZGtvtnizoYrKHztQWjZwDL0rZMwZQy8KokTbPG8a4ratrIWlVQr6aMZkX9N3404rSSUSQ60JzZsXpdkbG5UX28GBPO4B653df1fY5Eu0ojYDgeiQQMv-byKDUIn1DRl_r5JNEDv_Gm6keteVKahMVdYGNPIcW2ny-pxRMe67_ceMvqpT4BqVP7bUFswGK9LI4tcfsjUD1FWuebH_sfEnWM94vmltHufDWziXPJ3lbdcfwqjtKTSmBnvBe4T6qIhh71582-kqugOWjYAygvq06s6GyjQDuROTXzag-ooPtnQBP4665gqiFPyRgk3LRrUSZCBdH7TOfsYTqPlbygUhJW5OfmGz5orBByHgtAJfa_6oMsTfY_Pu6x43aRKIm44TwAbvykhxjbmc4ZnvqmMpBhzBpvPWcxHX4wFH79d9KSRIZm5AV3qrUomnuIymdsJJN7avwuHfu-dHBuj7JpqRly_PtU0jcp6QG3Woa-HgBpMogFhnIZJjbRXa7qpycoCxxVEIqGt0GznnzD40p8tEXtSVhzgtFVHGj6FqQyk9QGnJtPbTYKxBNKBCUu16EomQpwZHUHvqC4b0C-PD3exJxpDCnsi7vO1B0UMHAuJAy199uwKhurxymo4OzY3z3m00?></g></svg>