<svg xmlns="http://www.w3.org/2000/svg" xmlns:xlink="http://www.w3.org/1999/xlink" contentStyleType="text/css" data-diagram-type="CLASS" height="1132px" preserveAspectRatio="none" style="width:3746px;height:1132px;background:#FFFFFF;" version="1.1" viewBox="0 0 3746 1132" width="3746px" zoomAndPan="magnify"><?plantuml 1.2026.6?><defs/><g><g class="title" data-source-line="1"><text fill="#000000" font-family="sans-serif" font-size="14" font-weight="700" lengthAdjust="spacing" textLength="364.8682" x="1687.3867" y="24.5332">Elo Framework - Entrega Parcial com Apto Instanciado</text></g><!--cluster Elo Framework - Nucleo--><g class="cluster" data-qualified-name="Elo Framework - Nucleo" data-source-line="6" id="ent0001"><rect fill="none" height="446.5" rx="2.5" ry="2.5" style="stroke:#000000;stroke-width:1.5;" width="1536" x="1407" y="257.6094"/><text fill="#000000" font-family="sans-serif" font-size="14" font-weight="700" lengthAdjust="spacing" textLength="159.4824" x="2095.2588" y="274.1426">Elo Framework - Nucleo</text></g><!--cluster Apto - Instancia do Framework--><g class="cluster" data-qualified-name="Apto - Instancia do Framework" data-source-line="42" id="ent0008"><rect fill="none" height="1073" rx="2.5" ry="2.5" style="stroke:#000000;stroke-width:1.5;" width="1376" x="7" y="45.6094"/><text fill="#000000" font-family="sans-serif" font-size="14" font-weight="700" lengthAdjust="spacing" textLength="204.5859" x="592.707" y="62.1426">Apto - Instancia do Framework</text></g><!--class PerfilFramework--><g class="entity" data-qualified-name="Elo Framework - Nucleo.PerfilFramework" data-source-line="8" id="ent0002"><rect fill="#F1F1F1" height="76.3125" rx="2.5" ry="2.5" style="stroke:#181818;stroke-width:0.5;" width="133.9033" x="1423" y="320.1094"/><ellipse cx="1438" cy="341.4609" fill="#B4A7E5" rx="11" ry="11" style="stroke:#181818;stroke-width:1;"/><path d="M1438.9531,338.1016 L1438.9531,344.7578 L1440.6719,344.7578 Q1441.2813,344.7578 1441.5469,344.9922 Q1441.8125,345.2266 1441.8125,345.6172 Q1441.8125,345.9922 1441.5469,346.2266 Q1441.2813,346.4609 1440.6719,346.4609 L1435.5313,346.4609 Q1434.9219,346.4609 1434.6563,346.2266 Q1434.3906,345.9922 1434.3906,345.6016 Q1434.3906,345.2266 1434.6563,344.9922 Q1434.9219,344.7578 1435.5313,344.7578 L1437.25,344.7578 L1437.25,338.1016 L1435.5313,338.1016 Q1434.9219,338.1016 1434.6563,337.8672 Q1434.3906,337.6328 1434.3906,337.2422 Q1434.3906,336.8672 1434.6563,336.6328 Q1434.9219,336.3984 1435.5313,336.3984 L1440.6719,336.3984 Q1441.2813,336.3984 1441.5469,336.6328 Q1441.8125,336.8672 1441.8125,337.2422 Q1441.8125,337.6328 1441.5469,337.8672 Q1441.2813,338.1016 1440.6719,338.1016 L1438.9531,338.1016 Z " fill="#000000"/><text fill="#000000" font-family="sans-serif" font-size="12" font-style="italic" lengthAdjust="spacing" textLength="83.3906" x="1461.2563" y="337.5664">&#171;ponto flexivel&#187;</text><text fill="#000000" font-family="sans-serif" font-size="14" font-style="italic" lengthAdjust="spacing" textLength="101.9033" x="1452" y="354.7363">PerfilFramework</text><line style="stroke:#181818;stroke-width:0.5;" x1="1424" x2="1555.9033" y1="362.8125" y2="362.8125"/><line style="stroke:#181818;stroke-width:0.5;" x1="1424" x2="1555.9033" y1="370.8125" y2="370.8125"/><text fill="#000000" font-family="sans-serif" font-size="14" lengthAdjust="spacing" textLength="90.6377" x="1429" y="389.3457">+getId(): UUID</text></g><!--class OfertaFramework--><g class="entity" data-qualified-name="Elo Framework - Nucleo.OfertaFramework" data-source-line="12" id="ent0003"><rect fill="#F1F1F1" height="111.5313" rx="2.5" ry="2.5" style="stroke:#181818;stroke-width:0.5;" width="168.7891" x="2119.5" y="302.1094"/><ellipse cx="2147.0455" cy="323.4609" fill="#B4A7E5" rx="11" ry="11" style="stroke:#181818;stroke-width:1;"/><path d="M2147.9986,320.1016 L2147.9986,326.7578 L2149.7174,326.7578 Q2150.3268,326.7578 2150.5924,326.9922 Q2150.858,327.2266 2150.858,327.6172 Q2150.858,327.9922 2150.5924,328.2266 Q2150.3268,328.4609 2149.7174,328.4609 L2144.5768,328.4609 Q2143.9674,328.4609 2143.7018,328.2266 Q2143.4361,327.9922 2143.4361,327.6016 Q2143.4361,327.2266 2143.7018,326.9922 Q2143.9674,326.7578 2144.5768,326.7578 L2146.2955,326.7578 L2146.2955,320.1016 L2144.5768,320.1016 Q2143.9674,320.1016 2143.7018,319.8672 Q2143.4361,319.6328 2143.4361,319.2422 Q2143.4361,318.8672 2143.7018,318.6328 Q2143.9674,318.3984 2144.5768,318.3984 L2149.7174,318.3984 Q2150.3268,318.3984 2150.5924,318.6328 Q2150.858,318.8672 2150.858,319.2422 Q2150.858,319.6328 2150.5924,319.8672 Q2150.3268,320.1016 2149.7174,320.1016 L2147.9986,320.1016 Z " fill="#000000"/><text fill="#000000" font-family="sans-serif" font-size="12" font-style="italic" lengthAdjust="spacing" textLength="83.3906" x="2176.5932" y="319.5664">&#171;ponto flexivel&#187;</text><text fill="#000000" font-family="sans-serif" font-size="14" font-style="italic" lengthAdjust="spacing" textLength="108.9102" x="2163.8334" y="336.7363">OfertaFramework</text><line style="stroke:#181818;stroke-width:0.5;" x1="2120.5" x2="2287.2891" y1="344.8125" y2="344.8125"/><line style="stroke:#181818;stroke-width:0.5;" x1="2120.5" x2="2287.2891" y1="352.8125" y2="352.8125"/><text fill="#000000" font-family="sans-serif" font-size="14" lengthAdjust="spacing" textLength="90.6377" x="2125.5" y="371.3457">+getId(): UUID</text><text fill="#000000" font-family="sans-serif" font-size="14" lengthAdjust="spacing" textLength="156.7891" x="2125.5" y="388.9551">+getPublicadorId(): UUID</text><text fill="#000000" font-family="sans-serif" font-size="14" lengthAdjust="spacing" textLength="116.3408" x="2125.5" y="406.5645">+isAtiva(): boolean</text></g><!--class CompatibilidadeStrategy--><g class="entity" data-qualified-name="Elo Framework - Nucleo.CompatibilidadeStrategy" data-source-line="18" id="ent0004"><rect fill="#F1F1F1" height="93.9219" rx="2.5" ry="2.5" style="stroke:#181818;stroke-width:0.5;" width="412.3672" x="2515" y="594.1094"/><ellipse cx="2635.0034" cy="615.4609" fill="#B4A7E5" rx="11" ry="11" style="stroke:#181818;stroke-width:1;"/><path d="M2635.9565,612.1016 L2635.9565,618.7578 L2637.6753,618.7578 Q2638.2847,618.7578 2638.5503,618.9922 Q2638.8159,619.2266 2638.8159,619.6172 Q2638.8159,619.9922 2638.5503,620.2266 Q2638.2847,620.4609 2637.6753,620.4609 L2632.5347,620.4609 Q2631.9253,620.4609 2631.6597,620.2266 Q2631.394,619.9922 2631.394,619.6016 Q2631.394,619.2266 2631.6597,618.9922 Q2631.9253,618.7578 2632.5347,618.7578 L2634.2534,618.7578 L2634.2534,612.1016 L2632.5347,612.1016 Q2631.9253,612.1016 2631.6597,611.8672 Q2631.394,611.6328 2631.394,611.2422 Q2631.394,610.8672 2631.6597,610.6328 Q2631.9253,610.3984 2632.5347,610.3984 L2637.6753,610.3984 Q2638.2847,610.3984 2638.5503,610.6328 Q2638.8159,610.8672 2638.8159,611.2422 Q2638.8159,611.6328 2638.5503,611.8672 Q2638.2847,612.1016 2637.6753,612.1016 L2635.9565,612.1016 Z " fill="#000000"/><text fill="#000000" font-family="sans-serif" font-size="12" font-style="italic" lengthAdjust="spacing" textLength="83.3906" x="2690.0732" y="611.5664">&#171;ponto flexivel&#187;</text><text fill="#000000" font-family="sans-serif" font-size="14" font-style="italic" lengthAdjust="spacing" textLength="152.5303" x="2655.5034" y="628.7363">CompatibilidadeStrategy</text><rect fill="#FFFFFF" height="17.0938" style="stroke:#181818;stroke-width:1;stroke-dasharray:2,2;" width="9.3301" x="2921.0371" y="591.1094"/><text fill="#000000" font-family="sans-serif" font-size="12" font-style="italic" lengthAdjust="spacing" textLength="7.3301" x="2922.0371" y="604.5664">T</text><line style="stroke:#181818;stroke-width:0.5;" x1="2516" x2="2926.3672" y1="636.8125" y2="636.8125"/><line style="stroke:#181818;stroke-width:0.5;" x1="2516" x2="2926.3672" y1="644.8125" y2="644.8125"/><text fill="#000000" font-family="sans-serif" font-size="14" lengthAdjust="spacing" textLength="285.9951" x="2521" y="663.3457">+elegivel(solicitante: T, candidato: T): boolean</text><text fill="#000000" font-family="sans-serif" font-size="14" lengthAdjust="spacing" textLength="400.3672" x="2521" y="680.9551">+calcular(solicitante: T, candidato: T): ResultadoCompatibilidade</text></g><!--class ManifestacaoInteresseFramework--><g class="entity" data-qualified-name="Elo Framework - Nucleo.ManifestacaoInteresseFramework" data-source-line="23" id="ent0005"><rect fill="#F1F1F1" height="129.1406" rx="2.5" ry="2.5" style="stroke:#181818;stroke-width:0.5;" width="242.8613" x="1841.5" y="293.6094"/><ellipse cx="1856.5" cy="314.9609" fill="#B4A7E5" rx="11" ry="11" style="stroke:#181818;stroke-width:1;"/><path d="M1857.4531,311.6016 L1857.4531,318.2578 L1859.1719,318.2578 Q1859.7813,318.2578 1860.0469,318.4922 Q1860.3125,318.7266 1860.3125,319.1172 Q1860.3125,319.4922 1860.0469,319.7266 Q1859.7813,319.9609 1859.1719,319.9609 L1854.0313,319.9609 Q1853.4219,319.9609 1853.1563,319.7266 Q1852.8906,319.4922 1852.8906,319.1016 Q1852.8906,318.7266 1853.1563,318.4922 Q1853.4219,318.2578 1854.0313,318.2578 L1855.75,318.2578 L1855.75,311.6016 L1854.0313,311.6016 Q1853.4219,311.6016 1853.1563,311.3672 Q1852.8906,311.1328 1852.8906,310.7422 Q1852.8906,310.3672 1853.1563,310.1328 Q1853.4219,309.8984 1854.0313,309.8984 L1859.1719,309.8984 Q1859.7813,309.8984 1860.0469,310.1328 Q1860.3125,310.3672 1860.3125,310.7422 Q1860.3125,311.1328 1860.0469,311.3672 Q1859.7813,311.6016 1859.1719,311.6016 L1857.4531,311.6016 Z " fill="#000000"/><text fill="#000000" font-family="sans-serif" font-size="12" font-style="italic" lengthAdjust="spacing" textLength="65.3848" x="1943.2383" y="311.0664">&#171;ponto fixo&#187;</text><text fill="#000000" font-family="sans-serif" font-size="14" font-style="italic" lengthAdjust="spacing" textLength="210.8613" x="1870.5" y="328.2363">ManifestacaoInteresseFramework</text><line style="stroke:#181818;stroke-width:0.5;" x1="1842.5" x2="2083.3613" y1="336.3125" y2="336.3125"/><line style="stroke:#181818;stroke-width:0.5;" x1="1842.5" x2="2083.3613" y1="344.3125" y2="344.3125"/><text fill="#000000" font-family="sans-serif" font-size="14" lengthAdjust="spacing" textLength="90.6377" x="1847.5" y="362.8457">+getId(): UUID</text><text fill="#000000" font-family="sans-serif" font-size="14" lengthAdjust="spacing" textLength="163.7959" x="1847.5" y="380.4551">+getInteressadoId(): UUID</text><text fill="#000000" font-family="sans-serif" font-size="14" lengthAdjust="spacing" textLength="129.541" x="1847.5" y="398.0645">+getOfertaId(): UUID</text><text fill="#000000" font-family="sans-serif" font-size="14" lengthAdjust="spacing" textLength="121.0029" x="1847.5" y="415.6738">+getStatus(): String</text></g><!--class ResultadoCompatibilidade--><g class="entity" data-qualified-name="Elo Framework - Nucleo.ResultadoCompatibilidade" data-source-line="30" id="ent0006"><rect fill="#F1F1F1" height="111.5313" rx="2.5" ry="2.5" style="stroke:#181818;stroke-width:0.5;" width="213.5234" x="1592" y="302.1094"/><ellipse cx="1615.1404" cy="323.4609" fill="#ADD1B2" rx="11" ry="11" style="stroke:#181818;stroke-width:1;"/><path d="M1617.9061,319.3359 Q1618.0623,319.1172 1618.2498,319.0078 Q1618.4373,318.8984 1618.6561,318.8984 Q1619.0311,318.8984 1619.2654,319.1641 Q1619.4998,319.4141 1619.4998,320.0234 L1619.4998,321.4766 Q1619.4998,322.0859 1619.2654,322.3516 Q1619.0311,322.6172 1618.6561,322.6172 Q1618.3123,322.6172 1618.1092,322.4141 Q1617.9061,322.2266 1617.7967,321.7109 Q1617.7498,321.3516 1617.5623,321.1641 Q1617.2342,320.7891 1616.6248,320.5703 Q1616.0154,320.3516 1615.3904,320.3516 Q1614.6248,320.3516 1613.9842,320.6797 Q1613.3592,321.0078 1612.8592,321.7578 Q1612.3748,322.5078 1612.3748,323.5391 L1612.3748,324.6328 Q1612.3748,325.8672 1613.2654,326.6953 Q1614.1561,327.5078 1615.7498,327.5078 Q1616.6873,327.5078 1617.3436,327.2578 Q1617.7342,327.1016 1618.1561,326.6641 Q1618.4217,326.3984 1618.5623,326.3203 Q1618.7186,326.2422 1618.9217,326.2422 Q1619.2498,326.2422 1619.4998,326.5078 Q1619.7654,326.7578 1619.7654,327.1016 Q1619.7654,327.4453 1619.4217,327.8516 Q1618.9217,328.4297 1618.1248,328.7578 Q1617.0467,329.2109 1615.7498,329.2109 Q1614.2342,329.2109 1613.0311,328.5859 Q1612.0467,328.0859 1611.3592,327.0234 Q1610.6717,325.9453 1610.6717,324.6641 L1610.6717,323.5078 Q1610.6717,322.1797 1611.2811,321.0391 Q1611.9061,319.8828 1612.9998,319.2734 Q1614.0936,318.6484 1615.3279,318.6484 Q1616.0623,318.6484 1616.7029,318.8203 Q1617.3592,318.9766 1617.9061,319.3359 Z " fill="#000000"/><text fill="#000000" font-family="sans-serif" font-size="12" font-style="italic" lengthAdjust="spacing" textLength="65.3848" x="1679.9738" y="319.5664">&#171;ponto fixo&#187;</text><text fill="#000000" font-family="sans-serif" font-size="14" lengthAdjust="spacing" textLength="163.4336" x="1630.9494" y="336.7363">ResultadoCompatibilidade</text><line style="stroke:#181818;stroke-width:0.5;" x1="1593" x2="1804.5234" y1="344.8125" y2="344.8125"/><text fill="#000000" font-family="sans-serif" font-size="14" lengthAdjust="spacing" textLength="92.6064" x="1598" y="363.3457">-percentual: int</text><text fill="#000000" font-family="sans-serif" font-size="14" lengthAdjust="spacing" textLength="117.4824" x="1598" y="380.9551">-justificativa: String</text><text fill="#000000" font-family="sans-serif" font-size="14" lengthAdjust="spacing" textLength="201.5234" x="1598" y="398.5645">-origem: OrigemCompatibilidade</text><line style="stroke:#181818;stroke-width:0.5;" x1="1593" x2="1804.5234" y1="405.6406" y2="405.6406"/></g><!--class CompatibilidadeService--><g class="entity" data-qualified-name="Elo Framework - Nucleo.CompatibilidadeService" data-source-line="36" id="ent0007"><rect fill="#F1F1F1" height="93.9219" rx="2.5" ry="2.5" style="stroke:#181818;stroke-width:0.5;" width="603.0352" x="2323.5" y="311.1094"/><ellipse cx="2541.5649" cy="332.4609" fill="#ADD1B2" rx="11" ry="11" style="stroke:#181818;stroke-width:1;"/><path d="M2544.3306,328.3359 Q2544.4868,328.1172 2544.6743,328.0078 Q2544.8618,327.8984 2545.0806,327.8984 Q2545.4556,327.8984 2545.6899,328.1641 Q2545.9243,328.4141 2545.9243,329.0234 L2545.9243,330.4766 Q2545.9243,331.0859 2545.6899,331.3516 Q2545.4556,331.6172 2545.0806,331.6172 Q2544.7368,331.6172 2544.5337,331.4141 Q2544.3306,331.2266 2544.2212,330.7109 Q2544.1743,330.3516 2543.9868,330.1641 Q2543.6587,329.7891 2543.0493,329.5703 Q2542.4399,329.3516 2541.8149,329.3516 Q2541.0493,329.3516 2540.4087,329.6797 Q2539.7837,330.0078 2539.2837,330.7578 Q2538.7993,331.5078 2538.7993,332.5391 L2538.7993,333.6328 Q2538.7993,334.8672 2539.6899,335.6953 Q2540.5806,336.5078 2542.1743,336.5078 Q2543.1118,336.5078 2543.7681,336.2578 Q2544.1587,336.1016 2544.5806,335.6641 Q2544.8462,335.3984 2544.9868,335.3203 Q2545.1431,335.2422 2545.3462,335.2422 Q2545.6743,335.2422 2545.9243,335.5078 Q2546.1899,335.7578 2546.1899,336.1016 Q2546.1899,336.4453 2545.8462,336.8516 Q2545.3462,337.4297 2544.5493,337.7578 Q2543.4712,338.2109 2542.1743,338.2109 Q2540.6587,338.2109 2539.4556,337.5859 Q2538.4712,337.0859 2537.7837,336.0234 Q2537.0962,334.9453 2537.0962,333.6641 L2537.0962,332.5078 Q2537.0962,331.1797 2537.7056,330.0391 Q2538.3306,328.8828 2539.4243,328.2734 Q2540.5181,327.6484 2541.7524,327.6484 Q2542.4868,327.6484 2543.1274,327.8203 Q2543.7837,327.9766 2544.3306,328.3359 Z " fill="#000000"/><text fill="#000000" font-family="sans-serif" font-size="12" font-style="italic" lengthAdjust="spacing" textLength="65.3848" x="2602.9102" y="328.5664">&#171;ponto fixo&#187;</text><text fill="#000000" font-family="sans-serif" font-size="14" lengthAdjust="spacing" textLength="147.0752" x="2562.0649" y="345.7363">CompatibilidadeService</text><rect fill="#FFFFFF" height="17.0938" style="stroke:#181818;stroke-width:1;stroke-dasharray:2,2;" width="9.3301" x="2920.2051" y="308.1094"/><text fill="#000000" font-family="sans-serif" font-size="12" font-style="italic" lengthAdjust="spacing" textLength="7.3301" x="2921.2051" y="321.5664">T</text><line style="stroke:#181818;stroke-width:0.5;" x1="2324.5" x2="2925.5352" y1="353.8125" y2="353.8125"/><text fill="#000000" font-family="sans-serif" font-size="14" lengthAdjust="spacing" textLength="239.6748" x="2329.5" y="372.3457">-strategy: CompatibilidadeStrategy&lt;T&gt;</text><line style="stroke:#181818;stroke-width:0.5;" x1="2324.5" x2="2925.5352" y1="379.4219" y2="379.4219"/><text fill="#000000" font-family="sans-serif" font-size="14" lengthAdjust="spacing" textLength="591.0352" x="2329.5" y="397.9551">+calcularCompatibilidades(solicitante: T, candidatos: List&lt;T&gt;): List&lt;ResultadoCompatibilidade&gt;</text></g><!--class Usuario--><g class="entity" data-qualified-name="Apto - Instancia do Framework.Usuario" data-source-line="44" id="ent0009"><rect fill="#F1F1F1" height="111.5313" rx="2.5" ry="2.5" style="stroke:#181818;stroke-width:0.5;" width="157.4277" x="23.5" y="81.6094"/><ellipse cx="38.5" cy="102.9609" fill="#ADD1B2" rx="11" ry="11" style="stroke:#181818;stroke-width:1;"/><path d="M41.2656,98.8359 Q41.4219,98.6172 41.6094,98.5078 Q41.7969,98.3984 42.0156,98.3984 Q42.3906,98.3984 42.625,98.6641 Q42.8594,98.9141 42.8594,99.5234 L42.8594,100.9766 Q42.8594,101.5859 42.625,101.8516 Q42.3906,102.1172 42.0156,102.1172 Q41.6719,102.1172 41.4688,101.9141 Q41.2656,101.7266 41.1563,101.2109 Q41.1094,100.8516 40.9219,100.6641 Q40.5938,100.2891 39.9844,100.0703 Q39.375,99.8516 38.75,99.8516 Q37.9844,99.8516 37.3438,100.1797 Q36.7188,100.5078 36.2188,101.2578 Q35.7344,102.0078 35.7344,103.0391 L35.7344,104.1328 Q35.7344,105.3672 36.625,106.1953 Q37.5156,107.0078 39.1094,107.0078 Q40.0469,107.0078 40.7031,106.7578 Q41.0938,106.6016 41.5156,106.1641 Q41.7813,105.8984 41.9219,105.8203 Q42.0781,105.7422 42.2813,105.7422 Q42.6094,105.7422 42.8594,106.0078 Q43.125,106.2578 43.125,106.6016 Q43.125,106.9453 42.7813,107.3516 Q42.2813,107.9297 41.4844,108.2578 Q40.4063,108.7109 39.1094,108.7109 Q37.5938,108.7109 36.3906,108.0859 Q35.4063,107.5859 34.7188,106.5234 Q34.0313,105.4453 34.0313,104.1641 L34.0313,103.0078 Q34.0313,101.6797 34.6406,100.5391 Q35.2656,99.3828 36.3594,98.7734 Q37.4531,98.1484 38.6875,98.1484 Q39.4219,98.1484 40.0625,98.3203 Q40.7188,98.4766 41.2656,98.8359 Z " fill="#000000"/><text fill="#000000" font-family="sans-serif" font-size="12" font-style="italic" lengthAdjust="spacing" textLength="129.4277" x="50.5" y="99.0664">&#171;ponto fixo instanciado&#187;</text><text fill="#000000" font-family="sans-serif" font-size="14" lengthAdjust="spacing" textLength="48.2412" x="91.0933" y="116.2363">Usuario</text><line style="stroke:#181818;stroke-width:0.5;" x1="24.5" x2="179.9277" y1="124.3125" y2="124.3125"/><text fill="#000000" font-family="sans-serif" font-size="14" lengthAdjust="spacing" textLength="57.5586" x="29.5" y="142.8457">-id: UUID</text><text fill="#000000" font-family="sans-serif" font-size="14" lengthAdjust="spacing" textLength="84.0342" x="29.5" y="160.4551">-nome: String</text><text fill="#000000" font-family="sans-serif" font-size="14" lengthAdjust="spacing" textLength="82.4688" x="29.5" y="178.0645">-email: String</text><line style="stroke:#181818;stroke-width:0.5;" x1="24.5" x2="179.9277" y1="185.1406" y2="185.1406"/></g><!--class UsuarioUniversitario--><g class="entity" data-qualified-name="Apto - Instancia do Framework.UsuarioUniversitario" data-source-line="50" id="ent0010"><rect fill="#F1F1F1" height="93.9219" rx="2.5" ry="2.5" style="stroke:#181818;stroke-width:0.5;" width="158.041" x="330" y="311.1094"/><ellipse cx="345" cy="332.4609" fill="#ADD1B2" rx="11" ry="11" style="stroke:#181818;stroke-width:1;"/><path d="M347.7656,328.3359 Q347.9219,328.1172 348.1094,328.0078 Q348.2969,327.8984 348.5156,327.8984 Q348.8906,327.8984 349.125,328.1641 Q349.3594,328.4141 349.3594,329.0234 L349.3594,330.4766 Q349.3594,331.0859 349.125,331.3516 Q348.8906,331.6172 348.5156,331.6172 Q348.1719,331.6172 347.9688,331.4141 Q347.7656,331.2266 347.6563,330.7109 Q347.6094,330.3516 347.4219,330.1641 Q347.0938,329.7891 346.4844,329.5703 Q345.875,329.3516 345.25,329.3516 Q344.4844,329.3516 343.8438,329.6797 Q343.2188,330.0078 342.7188,330.7578 Q342.2344,331.5078 342.2344,332.5391 L342.2344,333.6328 Q342.2344,334.8672 343.125,335.6953 Q344.0156,336.5078 345.6094,336.5078 Q346.5469,336.5078 347.2031,336.2578 Q347.5938,336.1016 348.0156,335.6641 Q348.2813,335.3984 348.4219,335.3203 Q348.5781,335.2422 348.7813,335.2422 Q349.1094,335.2422 349.3594,335.5078 Q349.625,335.7578 349.625,336.1016 Q349.625,336.4453 349.2813,336.8516 Q348.7813,337.4297 347.9844,337.7578 Q346.9063,338.2109 345.6094,338.2109 Q344.0938,338.2109 342.8906,337.5859 Q341.9063,337.0859 341.2188,336.0234 Q340.5313,334.9453 340.5313,333.6641 L340.5313,332.5078 Q340.5313,331.1797 341.1406,330.0391 Q341.7656,328.8828 342.8594,328.2734 Q343.9531,327.6484 345.1875,327.6484 Q345.9219,327.6484 346.5625,327.8203 Q347.2188,327.9766 347.7656,328.3359 Z " fill="#000000"/><text fill="#000000" font-family="sans-serif" font-size="12" font-style="italic" lengthAdjust="spacing" textLength="129.4277" x="357.3066" y="328.5664">&#171;ponto fixo instanciado&#187;</text><text fill="#000000" font-family="sans-serif" font-size="14" lengthAdjust="spacing" textLength="126.041" x="359" y="345.7363">UsuarioUniversitario</text><line style="stroke:#181818;stroke-width:0.5;" x1="331" x2="487.041" y1="353.8125" y2="353.8125"/><text fill="#000000" font-family="sans-serif" font-size="14" lengthAdjust="spacing" textLength="83.248" x="336" y="372.3457">-curso: String</text><text fill="#000000" font-family="sans-serif" font-size="14" lengthAdjust="spacing" textLength="102.7305" x="336" y="389.9551">-genero: Genero</text><line style="stroke:#181818;stroke-width:0.5;" x1="331" x2="487.041" y1="397.0313" y2="397.0313"/></g><!--class Locador--><g class="entity" data-qualified-name="Apto - Instancia do Framework.Locador" data-source-line="55" id="ent0011"><rect fill="#F1F1F1" height="76.3125" rx="2.5" ry="2.5" style="stroke:#181818;stroke-width:0.5;" width="157.4277" x="523.5" y="320.1094"/><ellipse cx="538.5" cy="341.4609" fill="#ADD1B2" rx="11" ry="11" style="stroke:#181818;stroke-width:1;"/><path d="M541.2656,337.3359 Q541.4219,337.1172 541.6094,337.0078 Q541.7969,336.8984 542.0156,336.8984 Q542.3906,336.8984 542.625,337.1641 Q542.8594,337.4141 542.8594,338.0234 L542.8594,339.4766 Q542.8594,340.0859 542.625,340.3516 Q542.3906,340.6172 542.0156,340.6172 Q541.6719,340.6172 541.4688,340.4141 Q541.2656,340.2266 541.1563,339.7109 Q541.1094,339.3516 540.9219,339.1641 Q540.5938,338.7891 539.9844,338.5703 Q539.375,338.3516 538.75,338.3516 Q537.9844,338.3516 537.3438,338.6797 Q536.7188,339.0078 536.2188,339.7578 Q535.7344,340.5078 535.7344,341.5391 L535.7344,342.6328 Q535.7344,343.8672 536.625,344.6953 Q537.5156,345.5078 539.1094,345.5078 Q540.0469,345.5078 540.7031,345.2578 Q541.0938,345.1016 541.5156,344.6641 Q541.7813,344.3984 541.9219,344.3203 Q542.0781,344.2422 542.2813,344.2422 Q542.6094,344.2422 542.8594,344.5078 Q543.125,344.7578 543.125,345.1016 Q543.125,345.4453 542.7813,345.8516 Q542.2813,346.4297 541.4844,346.7578 Q540.4063,347.2109 539.1094,347.2109 Q537.5938,347.2109 536.3906,346.5859 Q535.4063,346.0859 534.7188,345.0234 Q534.0313,343.9453 534.0313,342.6641 L534.0313,341.5078 Q534.0313,340.1797 534.6406,339.0391 Q535.2656,337.8828 536.3594,337.2734 Q537.4531,336.6484 538.6875,336.6484 Q539.4219,336.6484 540.0625,336.8203 Q540.7188,336.9766 541.2656,337.3359 Z " fill="#000000"/><text fill="#000000" font-family="sans-serif" font-size="12" font-style="italic" lengthAdjust="spacing" textLength="129.4277" x="550.5" y="337.5664">&#171;ponto fixo instanciado&#187;</text><text fill="#000000" font-family="sans-serif" font-size="14" lengthAdjust="spacing" textLength="50.5928" x="589.9175" y="354.7363">Locador</text><line style="stroke:#181818;stroke-width:0.5;" x1="524.5" x2="679.9277" y1="362.8125" y2="362.8125"/><text fill="#000000" font-family="sans-serif" font-size="14" lengthAdjust="spacing" textLength="98.834" x="529.5" y="381.3457">-telefone: String</text><line style="stroke:#181818;stroke-width:0.5;" x1="524.5" x2="679.9277" y1="388.4219" y2="388.4219"/></g><!--class PerfilAnunciante--><g class="entity" data-qualified-name="Apto - Instancia do Framework.PerfilAnunciante" data-source-line="59" id="ent0012"><rect fill="#F1F1F1" height="93.9219" rx="2.5" ry="2.5" style="stroke:#181818;stroke-width:0.5;" width="146.0957" x="94" y="452.6094"/><ellipse cx="109" cy="473.9609" fill="#ADD1B2" rx="11" ry="11" style="stroke:#181818;stroke-width:1;"/><path d="M111.7656,469.8359 Q111.9219,469.6172 112.1094,469.5078 Q112.2969,469.3984 112.5156,469.3984 Q112.8906,469.3984 113.125,469.6641 Q113.3594,469.9141 113.3594,470.5234 L113.3594,471.9766 Q113.3594,472.5859 113.125,472.8516 Q112.8906,473.1172 112.5156,473.1172 Q112.1719,473.1172 111.9688,472.9141 Q111.7656,472.7266 111.6563,472.2109 Q111.6094,471.8516 111.4219,471.6641 Q111.0938,471.2891 110.4844,471.0703 Q109.875,470.8516 109.25,470.8516 Q108.4844,470.8516 107.8438,471.1797 Q107.2188,471.5078 106.7188,472.2578 Q106.2344,473.0078 106.2344,474.0391 L106.2344,475.1328 Q106.2344,476.3672 107.125,477.1953 Q108.0156,478.0078 109.6094,478.0078 Q110.5469,478.0078 111.2031,477.7578 Q111.5938,477.6016 112.0156,477.1641 Q112.2813,476.8984 112.4219,476.8203 Q112.5781,476.7422 112.7813,476.7422 Q113.1094,476.7422 113.3594,477.0078 Q113.625,477.2578 113.625,477.6016 Q113.625,477.9453 113.2813,478.3516 Q112.7813,478.9297 111.9844,479.2578 Q110.9063,479.7109 109.6094,479.7109 Q108.0938,479.7109 106.8906,479.0859 Q105.9063,478.5859 105.2188,477.5234 Q104.5313,476.4453 104.5313,475.1641 L104.5313,474.0078 Q104.5313,472.6797 105.1406,471.5391 Q105.7656,470.3828 106.8594,469.7734 Q107.9531,469.1484 109.1875,469.1484 Q109.9219,469.1484 110.5625,469.3203 Q111.2188,469.4766 111.7656,469.8359 Z " fill="#000000"/><text fill="#000000" font-family="sans-serif" font-size="12" font-style="italic" lengthAdjust="spacing" textLength="118.0957" x="121" y="470.0664">&#171;papel de publicador&#187;</text><text fill="#000000" font-family="sans-serif" font-size="14" lengthAdjust="spacing" textLength="101.9512" x="129.0723" y="487.2363">PerfilAnunciante</text><line style="stroke:#181818;stroke-width:0.5;" x1="95" x2="239.0957" y1="495.3125" y2="495.3125"/><text fill="#000000" font-family="sans-serif" font-size="14" lengthAdjust="spacing" textLength="57.5586" x="100" y="513.8457">-id: UUID</text><text fill="#000000" font-family="sans-serif" font-size="14" lengthAdjust="spacing" textLength="91.8408" x="100" y="531.4551">-ativo: boolean</text><line style="stroke:#181818;stroke-width:0.5;" x1="95" x2="239.0957" y1="538.5313" y2="538.5313"/></g><!--class PerfilConvivencia--><g class="entity" data-qualified-name="Apto - Instancia do Framework.PerfilConvivencia" data-source-line="64" id="ent0013"><rect fill="#F1F1F1" height="129.1406" rx="2.5" ry="2.5" style="stroke:#181818;stroke-width:0.5;" width="169.1855" x="360.5" y="576.6094"/><ellipse cx="388.5623" cy="597.9609" fill="#ADD1B2" rx="11" ry="11" style="stroke:#181818;stroke-width:1;"/><path d="M391.3279,593.8359 Q391.4842,593.6172 391.6717,593.5078 Q391.8592,593.3984 392.0779,593.3984 Q392.4529,593.3984 392.6873,593.6641 Q392.9217,593.9141 392.9217,594.5234 L392.9217,595.9766 Q392.9217,596.5859 392.6873,596.8516 Q392.4529,597.1172 392.0779,597.1172 Q391.7342,597.1172 391.5311,596.9141 Q391.3279,596.7266 391.2186,596.2109 Q391.1717,595.8516 390.9842,595.6641 Q390.6561,595.2891 390.0467,595.0703 Q389.4373,594.8516 388.8123,594.8516 Q388.0467,594.8516 387.4061,595.1797 Q386.7811,595.5078 386.2811,596.2578 Q385.7967,597.0078 385.7967,598.0391 L385.7967,599.1328 Q385.7967,600.3672 386.6873,601.1953 Q387.5779,602.0078 389.1717,602.0078 Q390.1092,602.0078 390.7654,601.7578 Q391.1561,601.6016 391.5779,601.1641 Q391.8436,600.8984 391.9842,600.8203 Q392.1404,600.7422 392.3436,600.7422 Q392.6717,600.7422 392.9217,601.0078 Q393.1873,601.2578 393.1873,601.6016 Q393.1873,601.9453 392.8436,602.3516 Q392.3436,602.9297 391.5467,603.2578 Q390.4686,603.7109 389.1717,603.7109 Q387.6561,603.7109 386.4529,603.0859 Q385.4686,602.5859 384.7811,601.5234 Q384.0936,600.4453 384.0936,599.1641 L384.0936,598.0078 Q384.0936,596.6797 384.7029,595.5391 Q385.3279,594.3828 386.4217,593.7734 Q387.5154,593.1484 388.7498,593.1484 Q389.4842,593.1484 390.1248,593.3203 Q390.7811,593.4766 391.3279,593.8359 Z " fill="#000000"/><text fill="#000000" font-family="sans-serif" font-size="12" font-style="italic" lengthAdjust="spacing" textLength="92.0684" x="413.51" y="594.0664">&#171;dados de perfil&#187;</text><text fill="#000000" font-family="sans-serif" font-size="14" lengthAdjust="spacing" textLength="108.1582" x="405.465" y="611.2363">PerfilConvivencia</text><line style="stroke:#181818;stroke-width:0.5;" x1="361.5" x2="528.6855" y1="619.3125" y2="619.3125"/><text fill="#000000" font-family="sans-serif" font-size="14" lengthAdjust="spacing" textLength="112.8545" x="366.5" y="637.8457">-fumante: boolean</text><text fill="#000000" font-family="sans-serif" font-size="14" lengthAdjust="spacing" textLength="149.4199" x="366.5" y="655.4551">-aceitaAnimais: boolean</text><text fill="#000000" font-family="sans-serif" font-size="14" lengthAdjust="spacing" textLength="125.2891" x="366.5" y="673.0645">-horarioSono: String</text><text fill="#000000" font-family="sans-serif" font-size="14" lengthAdjust="spacing" textLength="157.1855" x="366.5" y="690.6738">-nivelOrganizacao: String</text><line style="stroke:#181818;stroke-width:0.5;" x1="361.5" x2="528.6855" y1="697.75" y2="697.75"/></g><!--class Anuncio--><g class="entity" data-qualified-name="Apto - Instancia do Framework.Anuncio" data-source-line="71" id="ent0014"><rect fill="#F1F1F1" height="129.1406" rx="2.5" ry="2.5" style="stroke:#181818;stroke-width:0.5;" width="120.9307" x="933.5" y="783.6094"/><ellipse cx="952.7904" cy="804.9609" fill="#ADD1B2" rx="11" ry="11" style="stroke:#181818;stroke-width:1;"/><path d="M955.556,800.8359 Q955.7123,800.6172 955.8998,800.5078 Q956.0873,800.3984 956.306,800.3984 Q956.681,800.3984 956.9154,800.6641 Q957.1498,800.9141 957.1498,801.5234 L957.1498,802.9766 Q957.1498,803.5859 956.9154,803.8516 Q956.681,804.1172 956.306,804.1172 Q955.9623,804.1172 955.7591,803.9141 Q955.556,803.7266 955.4466,803.2109 Q955.3998,802.8516 955.2123,802.6641 Q954.8841,802.2891 954.2748,802.0703 Q953.6654,801.8516 953.0404,801.8516 Q952.2748,801.8516 951.6341,802.1797 Q951.0091,802.5078 950.5091,803.2578 Q950.0248,804.0078 950.0248,805.0391 L950.0248,806.1328 Q950.0248,807.3672 950.9154,808.1953 Q951.806,809.0078 953.3998,809.0078 Q954.3373,809.0078 954.9935,808.7578 Q955.3841,808.6016 955.806,808.1641 Q956.0716,807.8984 956.2123,807.8203 Q956.3685,807.7422 956.5716,807.7422 Q956.8998,807.7422 957.1498,808.0078 Q957.4154,808.2578 957.4154,808.6016 Q957.4154,808.9453 957.0716,809.3516 Q956.5716,809.9297 955.7748,810.2578 Q954.6966,810.7109 953.3998,810.7109 Q951.8841,810.7109 950.681,810.0859 Q949.6966,809.5859 949.0091,808.5234 Q948.3216,807.4453 948.3216,806.1641 L948.3216,805.0078 Q948.3216,803.6797 948.931,802.5391 Q949.556,801.3828 950.6498,800.7734 Q951.7435,800.1484 952.9779,800.1484 Q953.7123,800.1484 954.3529,800.3203 Q955.0091,800.4766 955.556,800.8359 Z " fill="#000000"/><text fill="#000000" font-family="sans-serif" font-size="12" font-style="italic" lengthAdjust="spacing" textLength="83.3965" x="965.7438" y="801.0664">&#171;tipo de oferta&#187;</text><text fill="#000000" font-family="sans-serif" font-size="14" lengthAdjust="spacing" textLength="50.5928" x="982.1457" y="818.2363">Anuncio</text><line style="stroke:#181818;stroke-width:0.5;" x1="934.5" x2="1053.4307" y1="826.3125" y2="826.3125"/><text fill="#000000" font-family="sans-serif" font-size="14" lengthAdjust="spacing" textLength="57.5586" x="939.5" y="844.8457">-id: UUID</text><text fill="#000000" font-family="sans-serif" font-size="14" lengthAdjust="spacing" textLength="78.5859" x="939.5" y="862.4551">-titulo: String</text><text fill="#000000" font-family="sans-serif" font-size="14" lengthAdjust="spacing" textLength="108.9307" x="939.5" y="880.0645">-descricao: String</text><text fill="#000000" font-family="sans-serif" font-size="14" lengthAdjust="spacing" textLength="91.8408" x="939.5" y="897.6738">-ativo: boolean</text><line style="stroke:#181818;stroke-width:0.5;" x1="934.5" x2="1053.4307" y1="904.75" y2="904.75"/></g><!--class Moradia--><g class="entity" data-qualified-name="Apto - Instancia do Framework.Moradia" data-source-line="78" id="ent0015"><rect fill="#F1F1F1" height="129.1406" rx="2.5" ry="2.5" style="stroke:#181818;stroke-width:0.5;" width="187.4395" x="900.5" y="973.6094"/><ellipse cx="915.5" cy="994.9609" fill="#ADD1B2" rx="11" ry="11" style="stroke:#181818;stroke-width:1;"/><path d="M918.2656,990.8359 Q918.4219,990.6172 918.6094,990.5078 Q918.7969,990.3984 919.0156,990.3984 Q919.3906,990.3984 919.625,990.6641 Q919.8594,990.9141 919.8594,991.5234 L919.8594,992.9766 Q919.8594,993.5859 919.625,993.8516 Q919.3906,994.1172 919.0156,994.1172 Q918.6719,994.1172 918.4688,993.9141 Q918.2656,993.7266 918.1563,993.2109 Q918.1094,992.8516 917.9219,992.6641 Q917.5938,992.2891 916.9844,992.0703 Q916.375,991.8516 915.75,991.8516 Q914.9844,991.8516 914.3438,992.1797 Q913.7188,992.5078 913.2188,993.2578 Q912.7344,994.0078 912.7344,995.0391 L912.7344,996.1328 Q912.7344,997.3672 913.625,998.1953 Q914.5156,999.0078 916.1094,999.0078 Q917.0469,999.0078 917.7031,998.7578 Q918.0938,998.6016 918.5156,998.1641 Q918.7813,997.8984 918.9219,997.8203 Q919.0781,997.7422 919.2813,997.7422 Q919.6094,997.7422 919.8594,998.0078 Q920.125,998.2578 920.125,998.6016 Q920.125,998.9453 919.7813,999.3516 Q919.2813,999.9297 918.4844,1000.2578 Q917.4063,1000.7109 916.1094,1000.7109 Q914.5938,1000.7109 913.3906,1000.0859 Q912.4063,999.5859 911.7188,998.5234 Q911.0313,997.4453 911.0313,996.1641 L911.0313,995.0078 Q911.0313,993.6797 911.6406,992.5391 Q912.2656,991.3828 913.3594,990.7734 Q914.4531,990.1484 915.6875,990.1484 Q916.4219,990.1484 917.0625,990.3203 Q917.7188,990.4766 918.2656,990.8359 Z " fill="#000000"/><text fill="#000000" font-family="sans-serif" font-size="12" font-style="italic" lengthAdjust="spacing" textLength="159.4395" x="927.5" y="991.0664">&#171;dados especificos da oferta&#187;</text><text fill="#000000" font-family="sans-serif" font-size="14" lengthAdjust="spacing" textLength="50.5791" x="981.9302" y="1008.2363">Moradia</text><line style="stroke:#181818;stroke-width:0.5;" x1="901.5" x2="1086.9395" y1="1016.3125" y2="1016.3125"/><text fill="#000000" font-family="sans-serif" font-size="14" lengthAdjust="spacing" textLength="57.5586" x="906.5" y="1034.8457">-id: UUID</text><text fill="#000000" font-family="sans-serif" font-size="14" lengthAdjust="spacing" textLength="107.3926" x="906.5" y="1052.4551">-endereco: String</text><text fill="#000000" font-family="sans-serif" font-size="14" lengthAdjust="spacing" textLength="160.2891" x="906.5" y="1070.0645">-valorAluguel: BigDecimal</text><text fill="#000000" font-family="sans-serif" font-size="14" lengthAdjust="spacing" textLength="136.2129" x="906.5" y="1087.6738">-quantidadeVagas: int</text><line style="stroke:#181818;stroke-width:0.5;" x1="901.5" x2="1086.9395" y1="1094.75" y2="1094.75"/></g><!--class ManifestacaoInteresse--><g class="entity" data-qualified-name="Apto - Instancia do Framework.ManifestacaoInteresse" data-source-line="85" id="ent0016"><rect fill="#F1F1F1" height="111.5313" rx="2.5" ry="2.5" style="stroke:#181818;stroke-width:0.5;" width="229.1094" x="879.5" y="585.1094"/><ellipse cx="919.8147" cy="606.4609" fill="#ADD1B2" rx="11" ry="11" style="stroke:#181818;stroke-width:1;"/><path d="M922.5803,602.3359 Q922.7366,602.1172 922.9241,602.0078 Q923.1116,601.8984 923.3303,601.8984 Q923.7053,601.8984 923.9397,602.1641 Q924.1741,602.4141 924.1741,603.0234 L924.1741,604.4766 Q924.1741,605.0859 923.9397,605.3516 Q923.7053,605.6172 923.3303,605.6172 Q922.9866,605.6172 922.7834,605.4141 Q922.5803,605.2266 922.4709,604.7109 Q922.4241,604.3516 922.2366,604.1641 Q921.9084,603.7891 921.2991,603.5703 Q920.6897,603.3516 920.0647,603.3516 Q919.2991,603.3516 918.6584,603.6797 Q918.0334,604.0078 917.5334,604.7578 Q917.0491,605.5078 917.0491,606.5391 L917.0491,607.6328 Q917.0491,608.8672 917.9397,609.6953 Q918.8303,610.5078 920.4241,610.5078 Q921.3616,610.5078 922.0178,610.2578 Q922.4084,610.1016 922.8303,609.6641 Q923.0959,609.3984 923.2366,609.3203 Q923.3928,609.2422 923.5959,609.2422 Q923.9241,609.2422 924.1741,609.5078 Q924.4397,609.7578 924.4397,610.1016 Q924.4397,610.4453 924.0959,610.8516 Q923.5959,611.4297 922.7991,611.7578 Q921.7209,612.2109 920.4241,612.2109 Q918.9084,612.2109 917.7053,611.5859 Q916.7209,611.0859 916.0334,610.0234 Q915.3459,608.9453 915.3459,607.6641 L915.3459,606.5078 Q915.3459,605.1797 915.9553,604.0391 Q916.5803,602.8828 917.6741,602.2734 Q918.7678,601.6484 920.0022,601.6484 Q920.7366,601.6484 921.3772,601.8203 Q922.0334,601.9766 922.5803,602.3359 Z " fill="#000000"/><text fill="#000000" font-family="sans-serif" font-size="12" font-style="italic" lengthAdjust="spacing" textLength="129.4277" x="945.1536" y="602.5664">&#171;ponto fixo instanciado&#187;</text><text fill="#000000" font-family="sans-serif" font-size="14" lengthAdjust="spacing" textLength="140.8545" x="939.4402" y="619.7363">ManifestacaoInteresse</text><line style="stroke:#181818;stroke-width:0.5;" x1="880.5" x2="1107.6094" y1="627.8125" y2="627.8125"/><text fill="#000000" font-family="sans-serif" font-size="14" lengthAdjust="spacing" textLength="57.5586" x="885.5" y="646.3457">-id: UUID</text><text fill="#000000" font-family="sans-serif" font-size="14" lengthAdjust="spacing" textLength="172.751" x="885.5" y="663.9551">-status: StatusManifestacao</text><text fill="#000000" font-family="sans-serif" font-size="14" lengthAdjust="spacing" textLength="217.1094" x="885.5" y="681.5645">-dataManifestacao: LocalDateTime</text><line style="stroke:#181818;stroke-width:0.5;" x1="880.5" x2="1107.6094" y1="688.6406" y2="688.6406"/></g><!--class CompatibilidadeDeterministicaCalculator--><g class="entity" data-qualified-name="Apto - Instancia do Framework.CompatibilidadeDeterministicaCalculator" data-source-line="91" id="ent0017"><rect fill="#F1F1F1" height="93.9219" rx="2.5" ry="2.5" style="stroke:#181818;stroke-width:0.5;" width="647.3457" x="215.5" y="90.6094"/><ellipse cx="408.8682" cy="111.9609" fill="#ADD1B2" rx="11" ry="11" style="stroke:#181818;stroke-width:1;"/><path d="M411.6338,107.8359 Q411.79,107.6172 411.9775,107.5078 Q412.165,107.3984 412.3838,107.3984 Q412.7588,107.3984 412.9932,107.6641 Q413.2275,107.9141 413.2275,108.5234 L413.2275,109.9766 Q413.2275,110.5859 412.9932,110.8516 Q412.7588,111.1172 412.3838,111.1172 Q412.04,111.1172 411.8369,110.9141 Q411.6338,110.7266 411.5244,110.2109 Q411.4775,109.8516 411.29,109.6641 Q410.9619,109.2891 410.3525,109.0703 Q409.7432,108.8516 409.1182,108.8516 Q408.3525,108.8516 407.7119,109.1797 Q407.0869,109.5078 406.5869,110.2578 Q406.1025,111.0078 406.1025,112.0391 L406.1025,113.1328 Q406.1025,114.3672 406.9932,115.1953 Q407.8838,116.0078 409.4775,116.0078 Q410.415,116.0078 411.0713,115.7578 Q411.4619,115.6016 411.8838,115.1641 Q412.1494,114.8984 412.29,114.8203 Q412.4463,114.7422 412.6494,114.7422 Q412.9775,114.7422 413.2275,115.0078 Q413.4932,115.2578 413.4932,115.6016 Q413.4932,115.9453 413.1494,116.3516 Q412.6494,116.9297 411.8525,117.2578 Q410.7744,117.7109 409.4775,117.7109 Q407.9619,117.7109 406.7588,117.0859 Q405.7744,116.5859 405.0869,115.5234 Q404.3994,114.4453 404.3994,113.1641 L404.3994,112.0078 Q404.3994,110.6797 405.0088,109.5391 Q405.6338,108.3828 406.7275,107.7734 Q407.8213,107.1484 409.0557,107.1484 Q409.79,107.1484 410.4307,107.3203 Q411.0869,107.4766 411.6338,107.8359 Z " fill="#000000"/><text fill="#000000" font-family="sans-serif" font-size="12" font-style="italic" lengthAdjust="spacing" textLength="152.7539" x="479.0459" y="108.0664">&#171;criterio de compatibilidade&#187;</text><text fill="#000000" font-family="sans-serif" font-size="14" lengthAdjust="spacing" textLength="252.1094" x="429.3682" y="125.2363">CompatibilidadeDeterministicaCalculator</text><line style="stroke:#181818;stroke-width:0.5;" x1="216.5" x2="861.8457" y1="133.3125" y2="133.3125"/><line style="stroke:#181818;stroke-width:0.5;" x1="216.5" x2="861.8457" y1="141.3125" y2="141.3125"/><text fill="#000000" font-family="sans-serif" font-size="14" lengthAdjust="spacing" textLength="520.9736" x="221.5" y="159.8457">+elegivel(solicitante: UsuarioUniversitario, candidato: UsuarioUniversitario): boolean</text><text fill="#000000" font-family="sans-serif" font-size="14" lengthAdjust="spacing" textLength="635.3457" x="221.5" y="177.4551">+calcular(solicitante: UsuarioUniversitario, candidato: UsuarioUniversitario): ResultadoCompatibilidade</text></g><!--class MatchmakingService--><g class="entity" data-qualified-name="Apto - Instancia do Framework.MatchmakingService" data-source-line="96" id="ent0018"><rect fill="#F1F1F1" height="93.9219" rx="2.5" ry="2.5" style="stroke:#181818;stroke-width:0.5;" width="468.7842" x="897.5" y="90.6094"/><ellipse cx="1062.6733" cy="111.9609" fill="#ADD1B2" rx="11" ry="11" style="stroke:#181818;stroke-width:1;"/><path d="M1065.439,107.8359 Q1065.5952,107.6172 1065.7827,107.5078 Q1065.9702,107.3984 1066.189,107.3984 Q1066.564,107.3984 1066.7983,107.6641 Q1067.0327,107.9141 1067.0327,108.5234 L1067.0327,109.9766 Q1067.0327,110.5859 1066.7983,110.8516 Q1066.564,111.1172 1066.189,111.1172 Q1065.8452,111.1172 1065.6421,110.9141 Q1065.439,110.7266 1065.3296,110.2109 Q1065.2827,109.8516 1065.0952,109.6641 Q1064.7671,109.2891 1064.1577,109.0703 Q1063.5483,108.8516 1062.9233,108.8516 Q1062.1577,108.8516 1061.5171,109.1797 Q1060.8921,109.5078 1060.3921,110.2578 Q1059.9077,111.0078 1059.9077,112.0391 L1059.9077,113.1328 Q1059.9077,114.3672 1060.7983,115.1953 Q1061.689,116.0078 1063.2827,116.0078 Q1064.2202,116.0078 1064.8765,115.7578 Q1065.2671,115.6016 1065.689,115.1641 Q1065.9546,114.8984 1066.0952,114.8203 Q1066.2515,114.7422 1066.4546,114.7422 Q1066.7827,114.7422 1067.0327,115.0078 Q1067.2983,115.2578 1067.2983,115.6016 Q1067.2983,115.9453 1066.9546,116.3516 Q1066.4546,116.9297 1065.6577,117.2578 Q1064.5796,117.7109 1063.2827,117.7109 Q1061.7671,117.7109 1060.564,117.0859 Q1059.5796,116.5859 1058.8921,115.5234 Q1058.2046,114.4453 1058.2046,113.1641 L1058.2046,112.0078 Q1058.2046,110.6797 1058.814,109.5391 Q1059.439,108.3828 1060.5327,107.7734 Q1061.6265,107.1484 1062.8608,107.1484 Q1063.5952,107.1484 1064.2358,107.3203 Q1064.8921,107.4766 1065.439,107.8359 Z " fill="#000000"/><text fill="#000000" font-family="sans-serif" font-size="12" font-style="italic" lengthAdjust="spacing" textLength="129.4277" x="1083.4282" y="108.0664">&#171;ponto fixo instanciado&#187;</text><text fill="#000000" font-family="sans-serif" font-size="14" lengthAdjust="spacing" textLength="129.9375" x="1083.1733" y="125.2363">MatchmakingService</text><line style="stroke:#181818;stroke-width:0.5;" x1="898.5" x2="1365.2842" y1="133.3125" y2="133.3125"/><text fill="#000000" font-family="sans-serif" font-size="14" lengthAdjust="spacing" textLength="456.7842" x="903.5" y="151.8457">-compatibilidadeStrategy: CompatibilidadeStrategy&lt;UsuarioUniversitario&gt;</text><line style="stroke:#181818;stroke-width:0.5;" x1="898.5" x2="1365.2842" y1="158.9219" y2="158.9219"/><text fill="#000000" font-family="sans-serif" font-size="14" lengthAdjust="spacing" textLength="421.374" x="903.5" y="177.4551">+buscarMatches(usuarioId: UUID): List&lt;ResultadoCompatibilidade&gt;</text></g><g class="entity" data-qualified-name="GMN35" data-source-line="124" id="ent0036"><path d="M3104.5,320.6094 L3104.5,396.0156 L3283.7407,396.0156 L3283.7407,330.6094 L3273.7407,320.6094 L3104.5,320.6094" fill="#FEFFDD" style="stroke:#181818;stroke-width:0.5;"/><path d="M3273.7407,320.6094 L3273.7407,330.6094 L3283.7407,330.6094 L3273.7407,320.6094" fill="#FEFFDD" style="stroke:#181818;stroke-width:1;"/><text fill="#000000" font-family="sans-serif" font-size="13" lengthAdjust="spacing" textLength="80.9326" x="3110.5" y="339.1045">Ponto flexivel:</text><text fill="#000000" font-family="sans-serif" font-size="13" lengthAdjust="spacing" textLength="122.1416" x="3110.5" y="355.4561">cada instancia define</text><text fill="#000000" font-family="sans-serif" font-size="13" lengthAdjust="spacing" textLength="106.2344" x="3110.5" y="371.8076">os dados do perfil.</text><text fill="#000000" font-family="sans-serif" font-size="13" lengthAdjust="spacing" textLength="158.2407" x="3110.5" y="388.1592">No Apto: PerfilConvivencia.</text></g><g class="entity" data-qualified-name="GMN38" data-source-line="131" id="ent0039"><path d="M3319,320.6094 L3319,396.0156 L3495.3652,396.0156 L3495.3652,330.6094 L3485.3652,320.6094 L3319,320.6094" fill="#FEFFDD" style="stroke:#181818;stroke-width:0.5;"/><path d="M3485.3652,320.6094 L3485.3652,330.6094 L3495.3652,330.6094 L3485.3652,320.6094" fill="#FEFFDD" style="stroke:#181818;stroke-width:1;"/><text fill="#000000" font-family="sans-serif" font-size="13" lengthAdjust="spacing" textLength="80.9326" x="3325" y="339.1045">Ponto flexivel:</text><text fill="#000000" font-family="sans-serif" font-size="13" lengthAdjust="spacing" textLength="122.1416" x="3325" y="355.4561">cada instancia define</text><text fill="#000000" font-family="sans-serif" font-size="13" lengthAdjust="spacing" textLength="149.6079" x="3325" y="371.8076">o tipo de oferta publicada.</text><text fill="#000000" font-family="sans-serif" font-size="13" lengthAdjust="spacing" textLength="155.3652" x="3325" y="388.1592">No Apto: Anuncio/Moradia.</text></g><g class="entity" data-qualified-name="GMN41" data-source-line="138" id="ent0042"><path d="M2962.5,595.1094 L2962.5,637.1094 L2927.13,641.1094 L2962.5,645.1094 L2962.5,686.8672 A0,0 0 0 0 2962.5,686.8672 L3161.9771,686.8672 A0,0 0 0 0 3161.9771,686.8672 L3161.9771,605.1094 L3151.9771,595.1094 L2962.5,595.1094 A0,0 0 0 0 2962.5,595.1094" fill="#FEFFDD" style="stroke:#181818;stroke-width:0.5;"/><path d="M3151.9771,595.1094 L3151.9771,605.1094 L3161.9771,605.1094 L3151.9771,595.1094" fill="#FEFFDD" style="stroke:#181818;stroke-width:0.5;"/><text fill="#000000" font-family="sans-serif" font-size="13" lengthAdjust="spacing" textLength="80.9326" x="2968.5" y="613.6045">Ponto flexivel:</text><text fill="#000000" font-family="sans-serif" font-size="13" lengthAdjust="spacing" textLength="122.1416" x="2968.5" y="629.9561">cada instancia define</text><text fill="#000000" font-family="sans-serif" font-size="13" lengthAdjust="spacing" textLength="178.4771" x="2968.5" y="646.3076">os criterios de compatibilidade.</text><text fill="#000000" font-family="sans-serif" font-size="13" lengthAdjust="spacing" textLength="144.5298" x="2968.5" y="662.6592">No Apto: compatibilidade</text><text fill="#000000" font-family="sans-serif" font-size="13" lengthAdjust="spacing" textLength="89.6099" x="2968.5" y="679.0107">de convivencia.</text></g><g class="entity" data-qualified-name="GMN44" data-source-line="146" id="ent0045"><path d="M3530,320.6094 L3530,396.0156 L3731.6416,396.0156 L3731.6416,330.6094 L3721.6416,320.6094 L3530,320.6094" fill="#FEFFDD" style="stroke:#181818;stroke-width:0.5;"/><path d="M3721.6416,320.6094 L3721.6416,330.6094 L3731.6416,330.6094 L3721.6416,320.6094" fill="#FEFFDD" style="stroke:#181818;stroke-width:1;"/><text fill="#000000" font-family="sans-serif" font-size="13" lengthAdjust="spacing" textLength="61.4263" x="3536" y="339.1045">Ponto fixo:</text><text fill="#000000" font-family="sans-serif" font-size="13" lengthAdjust="spacing" textLength="145.9644" x="3536" y="355.4561">todas as instancias usam</text><text fill="#000000" font-family="sans-serif" font-size="13" lengthAdjust="spacing" textLength="152.4771" x="3536" y="371.8076">Manifestacao de Interesse</text><text fill="#000000" font-family="sans-serif" font-size="13" lengthAdjust="spacing" textLength="180.6416" x="3536" y="388.1592">como mecanismo de interacao.</text></g><!--reverse link Usuario to UsuarioUniversitario--><g class="link" data-entity-1="ent0009" data-entity-2="ent0010" data-link-type="extension" data-source-line="102" id="lnk19"><path codeLine="102" d="M194.1349,204.1868 C245.0249,240.4068 296.17,276.7994 344.26,311.0294" fill="none" id="Usuario-backto-UsuarioUniversitario" style="stroke:#181818;stroke-width:1;"/><polygon fill="none" points="179.47,193.7494,190.6557,209.0751,197.6141,199.2985,179.47,193.7494" style="stroke:#181818;stroke-width:1;stroke-linejoin:miter;stroke-miterlimit:10;"/></g><!--reverse link Usuario to Locador--><g class="link" data-entity-1="ent0009" data-entity-2="ent0011" data-link-type="extension" data-source-line="103" id="lnk20"><path codeLine="103" d="M196.9665,193.9137 C202.7565,196.5737 192.23,191.4994 198,193.6094 C328.69,241.3294 384.63,181.5894 506,249.6094 C535.9,266.3694 561.29,295.9794 578.44,319.8794" fill="none" id="Usuario-backto-Locador" style="stroke:#181818;stroke-width:1;"/><polygon fill="none" points="180.61,186.3994,194.4617,199.3659,199.4713,188.4616,180.61,186.3994" style="stroke:#181818;stroke-width:1;stroke-linejoin:miter;stroke-miterlimit:10;"/></g><!--link UsuarioUniversitario to PerfilConvivencia--><g class="link" data-entity-1="ent0010" data-entity-2="ent0013" data-link-type="association" data-source-line="105" id="lnk21"><path codeLine="105" d="M414.9,405.1994 C420.88,451.8294 430.16,524.2894 436.84,576.3994" fill="none" id="UsuarioUniversitario-PerfilConvivencia" style="stroke:#181818;stroke-width:1;"/><text fill="#000000" font-family="sans-serif" font-size="13" lengthAdjust="spacing" textLength="7.23" x="408.2508" y="426.4717">1</text><text fill="#000000" font-family="sans-serif" font-size="13" lengthAdjust="spacing" textLength="7.23" x="428.5671" y="565.9534">1</text></g><!--link Usuario to PerfilAnunciante--><g class="link" data-entity-1="ent0009" data-entity-2="ent0012" data-link-type="association" data-source-line="106" id="lnk22"><path codeLine="106" d="M111.94,193.6794 C124.73,264.4894 146.7,386.1894 158.66,452.4094" fill="none" id="Usuario-PerfilAnunciante" style="stroke:#181818;stroke-width:1;"/><text fill="#000000" font-family="sans-serif" font-size="13" lengthAdjust="spacing" textLength="72.998" x="121" y="238.1045">possui papel</text><text fill="#000000" font-family="sans-serif" font-size="13" lengthAdjust="spacing" textLength="7.23" x="105.6732" y="214.63">1</text><text fill="#000000" font-family="sans-serif" font-size="13" lengthAdjust="spacing" textLength="21.6836" x="134.936" y="441.8285">0..1</text></g><!--link PerfilAnunciante to Anuncio--><g class="link" data-entity-1="ent0012" data-entity-2="ent0014" data-link-type="association" data-source-line="107" id="lnk23"><path codeLine="107" d="M183.27,546.8894 C203.01,595.9494 241.14,671.7794 300,712.1094 C403.47,783.0094 784.05,826.7494 933.34,841.4994" fill="none" id="PerfilAnunciante-Anuncio" style="stroke:#181818;stroke-width:1;"/><text fill="#000000" font-family="sans-serif" font-size="13" lengthAdjust="spacing" textLength="41.1963" x="301" y="646.6045">publica</text><text fill="#000000" font-family="sans-serif" font-size="13" lengthAdjust="spacing" textLength="7.23" x="178.0752" y="568.1885">1</text><text fill="#000000" font-family="sans-serif" font-size="13" lengthAdjust="spacing" textLength="19.5127" x="905.8247" y="837.2268">0..*</text></g><!--link Anuncio to Moradia--><g class="link" data-entity-1="ent0014" data-entity-2="ent0015" data-link-type="association" data-source-line="108" id="lnk24"><path codeLine="108" d="M994,912.7594 C994,932.3594 994,953.9294 994,973.5294" fill="none" id="Anuncio-Moradia" style="stroke:#181818;stroke-width:1;"/><text fill="#000000" font-family="sans-serif" font-size="13" lengthAdjust="spacing" textLength="7.23" x="986.6336" y="934.2121">1</text><text fill="#000000" font-family="sans-serif" font-size="13" lengthAdjust="spacing" textLength="7.23" x="986.5832" y="962.6446">1</text></g><!--link UsuarioUniversitario to ManifestacaoInteresse--><g class="link" data-entity-1="ent0010" data-entity-2="ent0016" data-link-type="association" data-source-line="110" id="lnk25"><path codeLine="110" d="M476.52,405.2694 C486.26,411.3494 496.28,417.3094 506,422.6094 C629.77,490.1394 778.6,554.1494 879.1,595.0194" fill="none" id="UsuarioUniversitario-ManifestacaoInteresse" style="stroke:#181818;stroke-width:1;"/><text fill="#000000" font-family="sans-serif" font-size="13" lengthAdjust="spacing" textLength="56.3608" x="756" y="505.1045">manifesta</text><text fill="#000000" font-family="sans-serif" font-size="13" lengthAdjust="spacing" textLength="7.23" x="478.5361" y="426.5516">1</text><text fill="#000000" font-family="sans-serif" font-size="13" lengthAdjust="spacing" textLength="19.5127" x="852.1435" y="589.0756">0..*</text></g><!--link ManifestacaoInteresse to Anuncio--><g class="link" data-entity-1="ent0016" data-entity-2="ent0014" data-link-type="association" data-source-line="111" id="lnk26"><path codeLine="111" d="M994,697.3194 C994,723.8794 994,755.8694 994,783.4594" fill="none" id="ManifestacaoInteresse-Anuncio" style="stroke:#181818;stroke-width:1;"/><text fill="#000000" font-family="sans-serif" font-size="13" lengthAdjust="spacing" textLength="60.7026" x="995" y="750.1045">oferta alvo</text><text fill="#000000" font-family="sans-serif" font-size="13" lengthAdjust="spacing" textLength="19.5127" x="973.9249" y="718.2862">0..*</text><text fill="#000000" font-family="sans-serif" font-size="13" lengthAdjust="spacing" textLength="7.23" x="986.6126" y="772.5665">1</text></g><!--reverse link PerfilFramework to PerfilConvivencia--><g class="link" data-entity-1="ent0002" data-entity-2="ent0013" data-link-type="extension" data-source-line="113" id="lnk27"><path codeLine="113" d="M1419.2958,405.4979 C1403.1358,415.1479 1400.54,415.5694 1383,422.6094 C1081.65,543.5794 697.56,606.1894 529.8,629.3694" fill="none" id="PerfilFramework-backto-PerfilConvivencia" style="stroke:#181818;stroke-width:1;stroke-dasharray:7,7;"/><polygon fill="none" points="1434.75,396.2694,1416.2196,400.3465,1422.3719,410.6493,1434.75,396.2694" style="stroke:#181818;stroke-width:1;stroke-linejoin:miter;stroke-miterlimit:10;"/></g><!--reverse link OfertaFramework to Anuncio--><g class="link" data-entity-1="ent0003" data-entity-2="ent0014" data-link-type="extension" data-source-line="114" id="lnk28"><path codeLine="114" d="M2103.5008,422.2269 C2097.7208,425.4169 2107.7,419.7794 2102,422.6094 C1717.4,613.8094 1224.3,775.1494 1054.56,828.4394" fill="none" id="OfertaFramework-backto-Anuncio" style="stroke:#181818;stroke-width:1;stroke-dasharray:7,7;"/><polygon fill="none" points="2119.26,413.5294,2100.6016,416.9739,2106.4,427.48,2119.26,413.5294" style="stroke:#181818;stroke-width:1;stroke-linejoin:miter;stroke-miterlimit:10;"/></g><!--reverse link ManifestacaoInteresseFramework to ManifestacaoInteresse--><g class="link" data-entity-1="ent0005" data-entity-2="ent0016" data-link-type="extension" data-source-line="115" id="lnk29"><path codeLine="115" d="M1824.3432,423.0766 C1818.4932,424.9566 1829.79,421.1494 1824,422.6094 C1727.48,447.0294 1459.17,396.3994 1377,452.6094 C1338.93,478.6594 1368.25,516.8594 1333,546.6094 C1270.37,599.4794 1180.2,622.6094 1108.6,632.6494" fill="none" id="ManifestacaoInteresseFramework-backto-ManifestacaoInteresse" style="stroke:#181818;stroke-width:1;stroke-dasharray:7,7;"/><polygon fill="none" points="1841.48,417.5694,1822.5074,417.3643,1826.1789,428.7889,1841.48,417.5694" style="stroke:#181818;stroke-width:1;stroke-linejoin:miter;stroke-miterlimit:10;"/></g><!--reverse link CompatibilidadeStrategy to CompatibilidadeDeterministicaCalculator--><g class="link" data-entity-1="ent0004" data-entity-2="ent0017" data-link-type="extension" data-source-line="116" id="lnk30"><path codeLine="116" d="M2807.2309,583.4399 C2860.1209,544.8499 2913.43,495.1194 2944,422.6094 C2973.87,351.7594 2997.63,304.7094 2944,249.6094 C2864,167.4094 994.21,204.3194 880,193.6094 C854.77,191.2394 828.59,188.1594 802.44,184.6594" fill="none" id="CompatibilidadeStrategy-backto-CompatibilidadeDeterministicaCalculator" style="stroke:#181818;stroke-width:1;stroke-dasharray:7,7;"/><polygon fill="none" points="2792.69,594.0494,2810.7674,588.2869,2803.6945,578.5929,2792.69,594.0494" style="stroke:#181818;stroke-width:1;stroke-linejoin:miter;stroke-miterlimit:10;"/></g><!--link CompatibilidadeService to CompatibilidadeStrategy--><g class="link" data-entity-1="ent0007" data-entity-2="ent0004" data-link-type="dependency" data-source-line="118" id="lnk31"><path codeLine="118" d="M2640.74,405.1994 C2658.56,457.3594 2685.803,537.0981 2703.633,589.2681" fill="none" id="CompatibilidadeService-to-CompatibilidadeStrategy" style="stroke:#181818;stroke-width:1;"/><polygon fill="#181818" points="2705.25,593.9994,2706.1244,584.1894,2703.633,589.2681,2698.5543,586.7766,2705.25,593.9994" style="stroke:#181818;stroke-width:1;stroke-linejoin:miter;stroke-miterlimit:10;"/></g><!--link MatchmakingService to CompatibilidadeStrategy--><g class="link" data-entity-1="ent0018" data-entity-2="ent0004" data-link-type="dependency" data-source-line="119" id="lnk32"><path codeLine="119" d="M1366.61,144.0294 C1857.14,156.5194 2950.6,190.8394 3006,249.6094 C3096.54,345.6694 3083.44,439.7094 3006,546.6094 C2997.73,558.0194 2950.283,575.0422 2892.743,592.5722" fill="none" id="MatchmakingService-to-CompatibilidadeStrategy" style="stroke:#181818;stroke-width:1;"/><polygon fill="#181818" points="2887.96,594.0294,2897.7351,595.2328,2892.743,592.5722,2895.4036,587.5801,2887.96,594.0294" style="stroke:#181818;stroke-width:1;stroke-linejoin:miter;stroke-miterlimit:10;"/></g><!--link MatchmakingService to ResultadoCompatibilidade--><g class="link" data-entity-1="ent0018" data-entity-2="ent0006" data-link-type="dependency" data-source-line="120" id="lnk33"><path codeLine="120" d="M1366.53,175.8494 C1436.11,192.5194 1510.82,216.2094 1575,249.6094 C1600.91,263.0894 1622.2584,279.6262 1642.9784,298.6662" fill="none" id="MatchmakingService-to-ResultadoCompatibilidade" style="stroke:#181818;stroke-width:1;"/><polygon fill="#181818" points="1646.66,302.0494,1642.7396,293.0144,1642.9784,298.6662,1637.3266,298.9051,1646.66,302.0494" style="stroke:#181818;stroke-width:1;stroke-linejoin:miter;stroke-miterlimit:10;"/></g><!--link CompatibilidadeDeterministicaCalculator to ResultadoCompatibilidade--><g class="link" data-entity-1="ent0017" data-entity-2="ent0006" data-link-type="dependency" data-source-line="121" id="lnk34"><path codeLine="121" d="M812.33,184.6594 C835.19,187.9094 857.97,190.9494 880,193.6094 C1033.83,212.1794 1432.13,189.6494 1575,249.6094 C1602.98,261.3494 1625.5211,278.4793 1646.5311,298.5093" fill="none" id="CompatibilidadeDeterministicaCalculator-to-ResultadoCompatibilidade" style="stroke:#181818;stroke-width:1;"/><polygon fill="#181818" points="1650.15,301.9594,1646.396,292.854,1646.5311,298.5093,1640.8758,298.6443,1650.15,301.9594" style="stroke:#181818;stroke-width:1;stroke-linejoin:miter;stroke-miterlimit:10;"/></g><!--link PerfilFramework to GMN35--><g class="link" data-entity-1="ent0002" data-entity-2="ent0036" data-link-type="association" data-source-line="124" id="lnk37"><path d="M1506.41,320.0794 C1522.87,287.2594 1551.67,242.0094 1592.5,221.6094 C1665.41,185.1794 2984.32,190.1394 3059.5,221.6094 C3107.07,241.5194 3146.34,287.3594 3169.93,320.4294" fill="none" id="PerfilFramework-GMN35" style="stroke:#181818;stroke-width:1;stroke-dasharray:7,7;"/></g><!--link OfertaFramework to GMN38--><g class="link" data-entity-1="ent0003" data-entity-2="ent0039" data-link-type="association" data-source-line="131" id="lnk40"><path d="M2236.46,301.9994 C2257.14,272.1194 2286.93,238.1994 2323.5,221.6094 C2372.07,199.5794 3234.75,199.9794 3283.5,221.6094 C3328.78,241.6994 3364.5,287.4994 3385.64,320.5194" fill="none" id="OfertaFramework-GMN38" style="stroke:#181818;stroke-width:1;stroke-dasharray:7,7;"/></g><!--link ManifestacaoInteresseFramework to GMN44--><g class="link" data-entity-1="ent0005" data-entity-2="ent0045" data-link-type="association" data-source-line="146" id="lnk46"><path d="M2017.09,293.4594 C2044.54,265.6894 2080.34,236.2894 2119.5,221.6094 C2191.08,194.7794 3424.93,192.2294 3495.5,221.6094 C3543.28,241.4994 3582.88,287.3494 3606.68,320.4194" fill="none" id="ManifestacaoInteresseFramework-GMN44" style="stroke:#181818;stroke-width:1;stroke-dasharray:7,7;"/></g><?plantuml-src dLTHRzis47xdho3yr6wprxqAXW4lwGO3RHCioTxFr5dXGf4QINbjr_xt7Id9bcJAzb8KK4iUxxxxxkuZxQLNoDyhmt-pKE8_nhxmEN-llSK2-3rO8K5nOKg-hhpX6-qyQ5hB3MFkHUeAw1YlGBn0WG_-2pcpACYcKDWp40gSMtjlvRRsk156FyYloDynrXxbip66JxLGQ6RyNyOubzgZtO50VazVgOw6osLbD27RAVmizwXMAph1wS-F1VfD_kPjnf-UDhUqz7tew6w7riDh73LBz_LMIK54sF6cf4pb7iBYrXY5e4-ZtvYo0Y-tKiaSScBEWiVYo_9nTGO8AYp2oXjdABGabZrc_F4dBa3dvCSR-jyWAXqIe4Ijm5uwz0UwMddAPmJj5Fj7q7A7r0W2p2QiedEO859-DfT8x8vJsCHkKwB4neC7NxkmJCH9NNGOOvjDPf96Dg_G2jI-1fM599l5lshdvOxg6ohP2qDRnie2oupVnUy4MmsISPNHxgN0GP47K5pR1jcP_XXMTMJdfgliClv1EayUthR_ck9f5PFutflDEFlpu_Jpl3UhxOWs6J-v6gmqW_o8rODg77ELUQ-eSsrA7DAC9KYLBd0Rv4dJC5X7oLuNKTJMcM6G0ZLQMlizVeTHFfWutLSuzZIOEwCnZRPHhBMkmp4gIt085IfE7LaTH6IAcD20vaH8-fvlZDuJ4R4kooKLqBZeEcuUtUxgiccAlZhCQPw9lxMMnBORxJqR6vXzC7h4Mk1TtTc2TE1h485qtat6eJ1ULYP0Cd6UfpBrqjTg58awMbWv3761b8-4EkzHWQv24KOvq08NCA3EIO_4ADmUbB5hLHSrKaV-AejRybY2QdR_hedNE3X_GW6k4v4-f9HW_kyHSL7q0hBmxVjikG8F_TKiTh2w9U5ubELvPRf5GbLAJR90RDyquk9ZynF_j2TZ0SL8A2xSJAav7TmxAOFhxg_NkhvqotK5y-Av17g-5ArcNoClQScUrl8Kn5RUjxKJO2CCqlIwCToqxN2rVX_4-DjydYHaQD4Atk7SK5zdlymu6ONFYUuS_7H6xnQBWrrF-J9U6UTgoQC0ifFztl4VPWS1oJgPPDrA3qixxXT0DmxJSvZnibjdQOlsU1ln2AlH4WvgJw_XauVfjyKYmTJ9ipEOjIxPfPTLi4tQi8aUQuvSEUoCfTyhbFXggebPObHUOJuvbjVgr5adJ1jgBdgkFNkgsVWd1BiVFBSpHbC0nn4dtTj9ZInU7_5kDUtTkc2VJFnPb9tMUS7eAk4XxZZwg06kZSw7b-ZXvG0z56qR_TpEn3I6gUfSpKHtARZ4hT03DDfXqVWAZixFGGUJb3XZtkJWEFqzm7IyTb0EPYcWFCuAeJAyHBeif2lZNlnj4mnxaFu3?></g></svg>