<svg width="256" height="256" viewBox="0 0 256 256" fill="none" xmlns="http://www.w3.org/2000/svg">
  <rect width="256" height="256" rx="64" fill="#EEF2FF"/>
  <path d="M72 88C72 74.7452 82.7452 64 96 64H160C173.255 64 184 74.7452 184 88V152C184 165.255 173.255 176 160 176H129.941L101.255 195.124C95.9306 198.674 88.8 194.857 88.8 188.458V176H96C82.7452 176 72 165.255 72 152V88Z" fill="#4F46E5"/>
  <path d="M102 111C102 104.373 107.373 99 114 99H142C148.627 99 154 104.373 154 111C154 117.627 148.627 123 142 123H114C107.373 123 102 117.627 102 111Z" fill="white"/>
  <path d="M102 143C102 136.373 107.373 131 114 131H160C166.627 131 172 136.373 172 143C172 149.627 166.627 155 160 155H114C107.373 155 102 149.627 102 143Z" fill="white" fill-opacity="0.92"/>
  <circle cx="191" cy="86" r="29" fill="#10B981"/>
  <path d="M179 86.5L187 94.5L204 77" stroke="white" stroke-width="10" stroke-linecap="round" stroke-linejoin="round"/>
</svg>
