<svg width="246" height="198" viewBox="0 0 246 198" fill="none" xmlns="http://www.w3.org/2000/svg">
<path d="M246 101.329C245.167 97.1625 237.924 86.6055 224.5 75.3292C236.774 72.789 246 62.027 246 49C246 34.0883 233.912 22 219 22C205.017 22 193.517 32.6291 192.138 46.2483C185.597 40.4393 178.055 33.8233 169 26.3292C148.006 8.95462 135.623 -0.0154149 123 1.98852e-05C110.432 0.0821056 97.9548 8.9873 77 26.3292C67.9413 33.8261 60.543 40.1894 54 46C52.628 32.3741 40.9876 22 27 22C12.0883 22 0 34.0883 0 49C0 62.0625 9.54157 72.4985 21.8658 75L21.395 75.4175C8.03813 86.6605 0.831153 97.1734 0 101.329V157.829C0 157.829 0.438019 174.53 3.00006 181.329C5.5621 188.128 20.9474 204.329 40 193.329C51.8455 186.49 89.239 149.388 118.2 119.8L100.7 101.5L50.5001 149.829L38.0001 162.329C30.3606 169.04 27.3243 169.639 26.0001 160.329C26.0001 138.265 27.0001 131.894 27.0001 109.829C27.8334 105.663 35.076 95.1055 48.5001 83.8293C61.0001 73.3293 91.1667 47.3293 104 34.8293L122 18.4121C122.81 17.7706 123.246 17.813 124 18.4121L142 34.8293C154.833 47.3293 185 73.3293 197.5 83.8293C210.924 95.1055 218.167 105.663 219 109.829C219 131.894 220 138.265 220 160.329C218.676 169.639 215.639 169.04 208 162.329L195.5 149.829L110.5 67.8293C107.5 65 103.589 63 99.5 63C92.5964 63 88.5 66.4068 88.5 74C88.5 78.4981 91.5 82 93.7113 84.5C93.7113 84.5 106.215 97.6196 123 114.79C152.05 144.507 193.925 186.357 206 193.329C225.053 204.329 240.438 188.128 243 181.329C245.562 174.53 246 157.829 246 157.829V101.329Z" fill="url(#paint0_linear_3_2)"/>
<path d="M145 92.2184L128 75L135.5 67.8293C138.5 65 142.411 63 146.5 63C153.404 63 157.5 66.4068 157.5 74C157.5 78.4981 154.5 82 152.289 84.5C152.289 84.5 151.38 85.6012 145 92.2184Z" fill="url(#paint1_linear_3_2)"/>
<defs>
<linearGradient id="paint0_linear_3_2" x1="304" y1="-189" x2="-71.5" y2="368.5" gradientUnits="userSpaceOnUse">
<stop stop-color="#A200FF"/>
<stop offset="1" stop-color="#2900A4"/>
</linearGradient>
<linearGradient id="paint1_linear_3_2" x1="304" y1="-189" x2="-71.5" y2="368.5" gradientUnits="userSpaceOnUse">
<stop stop-color="#A200FF"/>
<stop offset="1" stop-color="#2900A4"/>
</linearGradient>
</defs>
</svg>
